<svg id="en" xmlns="http://www.w3.org/2000/svg" xmlns:xlink="http://www.w3.org/1999/xlink" width="288.6583" height="156" viewBox="0 0 288.6583 156"><defs><style>.cls-1{fill:none;}.cls-2{fill:#14377d;}.cls-3{fill:#94560f;}.cls-4{clip-path:url(#clip-path);}</style><clipPath id="clip-path"><rect class="cls-1" x="1.957" y="0.1032" width="284.7442" height="155.7931"/></clipPath></defs><path class="cls-2" d="M1.9571,125.6864a2.3961,2.3961,0,0,0,2.5165-2.401V103.9911A3.0226,3.0226,0,0,0,2.0712,100.75v-.8391c1.4493,0,2.86.1523,4.3086.1523s2.898-.1523,4.3473-.1523v.8391c-1.5634.4195-2.059,1.3334-2.059,3.3549,0,1.1432-.1147,3.5842-.1147,7.0164V124.314a20.3262,20.3262,0,0,0,4.0418.2292c6.5589,0,7.7408-1.1822,8.6939-3.6234l1.3725.6873-1.6393,5.376a10.2668,10.2668,0,0,0-3.6609-.6094H4.8551c-.9537,0-1.9448.1524-2.898.1524v-.84Z"/><path class="cls-2" d="M26.1151,105.2059c1.098,0,2.196.122,3.3247.122,1.098,0,2.2267-.122,3.3248-.122v.67c-1.3727.1834-1.7083,1.0985-1.7083,3.0506,0,2.8974-.03,5.7947-.03,8.6917,0,4.0884,1.8905,6.9854,6.4352,6.9854,2.4706,0,5.6124-1.433,5.6124-4.88v-3.5981c0-3.6-.2747-7.1991-.2747-8.7239a1.6949,1.6949,0,0,0-1.5555-1.5258v-.67c1.098,0,2.196.122,3.294.122s2.2268-.122,3.3248-.122v.67c-1.0064.0312-1.4337,1.22-1.4337,2.2575,0,1.1589-.0912,4.3314-.0912,8.3576V123.14c0,1.7081.3351,2.5924,1.6776,2.684v.6713c-.8541,0-1.7385-.1214-2.5926-.1214s-1.7082.1214-2.5623.1214c.0609-1.0367.1527-1.9829.2136-2.8982-2.2267,2.0746-4.1178,3.2648-7.2289,3.2648-4.5139,0-8.0824-2.5935-8.0824-7.1687V114.6c0-2.3784-.1527-4.4837-.1527-6.3742,0-1.1891-.2137-2.1658-1.4946-2.3492v-.67Z"/><path class="cls-2" d="M54.7253,125.8238c1.1892-.3047,1.8912-1.22,1.8912-2.9279l.0911-18.0569h1.2809l14.9154,16.41V110.7568c0-3.7822-.8239-4.6671-2.2878-4.8807v-.67c1.0064,0,2.0132.122,3.0194.122s2.0439-.122,3.05-.122v.67c-1.3419.2449-2.013,1.3122-2.013,3.7822l-.0918,17.2034H73.5443L58.3851,110.36l.1219,11.6209c.0308,2.3793.7624,3.4778,2.2268,3.8432v.6713c-1.0063,0-2.0131-.1214-3.0193-.1214s-1.9829.1214-2.9892.1214v-.6713Z"/><path class="cls-2" d="M87.7555,125.0311a29.102,29.102,0,0,0,3.7822.244c5.8256,0,8.7537-3.5683,8.7537-9.4254,0-5.52-3.8432-9.4243-9.242-9.4243-.976,0-1.9213.0615-3.1417.1219-.03,2.6848-.1522,5.1246-.1522,7.6864v10.7974Zm-4.85.7927c1.2507-.3047,1.5862-.8545,1.5862-2.165v-8.8756c0-2.6851-.3048-5.0634-.3048-6.5579a2.2189,2.2189,0,0,0-1.5862-2.4712v-.5482c1.4335,0,2.8363.122,4.27.122,1.4028,0,2.8364-.122,4.27-.122,8.3264,0,13.3895,3.6592,13.3895,10.5224,0,6.9854-3.9652,10.7668-12.5354,10.7668-1.5253,0-3.05-.1214-4.5452-.1214-1.5248,0-3.0193.1214-4.5446.1214v-.6713Z"/><path class="cls-2" d="M18.2854,144.6483c.5593-.1432.8888-.5738.8888-1.3757l.0431-8.4861h.6018l7.01,7.7117v-4.9315c0-1.7767-.3871-2.1926-1.075-2.2934v-.315c.4726,0,.9458.0573,1.419.0573s.96-.0573,1.4336-.0573v.315c-.631.1146-.9465.6175-.9465,1.7779l-.043,8.0851H27.13L20.0054,137.38l.0576,5.4619c.014,1.1181.358,1.6347,1.0466,1.8065v.315c-.4733,0-.9465-.0561-1.42-.0561s-.9313.0561-1.4045.0561v-.315Z"/><path class="cls-2" d="M34.7407,135.2733c-.53.0871-.5873.4594-.5873.96,0,1.3907-.0576,3.0827-.0576,4.6017v2.7813c0,.4731.1577,1.0172.7025,1.0321v.315c-.4878,0-.9895-.0561-1.4767-.0561-.5017,0-.9889.0561-1.4761.0561v-.315c.4586-.0149.7165-.4158.7165-1.0321V141.552c0-1.7194-.1292-4.2431-.1292-5.1458,0-.5876-.0571-1.0607-.6449-1.1329v-.315c.4871,0,.9749.0573,1.4767.0573.4872,0,.9889-.0573,1.4761-.0573v.315Z"/><path class="cls-2" d="M41.8929,145.1363l-3.9562-8.7014a2.1,2.1,0,0,0-1.032-1.1616v-.315c.5448,0,1.09.0573,1.6339.0573.5308,0,1.075-.0573,1.62-.0573v.315c-.2719.0573-.53.1867-.53.5167a2.5611,2.5611,0,0,0,.2584.8877l2.6227,6.265,2.2363-5.8491a2.6366,2.6366,0,0,0,.2008-.9462c0-.5579-.1862-.787-.7456-.8741v-.315c.4878,0,.9749.0573,1.4621.0573s.9749-.0573,1.4621-.0573v.315c-.5873.0871-.9174.5728-1.2037,1.29l-3.3974,8.5731Z"/><path class="cls-2" d="M49.09,144.5911a.83.83,0,0,0,.8312-.8741v-2.4228c0-1.95-.1146-4-.1146-5.2751,0-.3586-.2724-.6026-.7166-.6885v-.315h5.6617a4.0543,4.0543,0,0,0,1.1327-.2291c0,.3723-.0576.7171-.0576,1.0745s.0576.7022.0576,1.0607H55.34c-.2433-.6885-.5879-1.2188-1.376-1.2188H51.4549v3.8146H53.62c.8312,0,1.1036-.0722,1.4476-.7744h.4586c0,.4147-.057.8305-.057,1.2475,0,.43.057.8443.057,1.26h-.4872c-.3154-.9886-.5878-1.0459-1.419-1.0459H51.4549v4.014h2.437a2.0436,2.0436,0,0,0,2.0925-1.0746l.4447.2292-.5017,1.7629a3.6343,3.6343,0,0,0-1.3475-.2291H49.09v-.3161Z"/><path class="cls-2" d="M61.7623,140.1762c.2154.0137.3871.0435.5594.0435a2.3036,2.3036,0,0,0,2.4511-2.251c0-1.3185-.6019-2.4949-2.1647-2.4949-.3725,0-.7742.0435-.7742.402l-.0716,4.3Zm-2.25,4.4721c.4872-.1157.7165-.3448.7165-.8316v-3.6829c0-1.2337-.0716-2.4663-.0716-3.684,0-.6747-.0716-1.0333-.8027-1.1765v-.315c.4587,0,.9319.0573,1.3906.0573.43,0,.86-.0573,1.9347-.0573,2.58,0,3.8421,1.29,3.8421,2.8386a3.056,3.056,0,0,1-2.5947,2.6943l2.8956,3.3541a2.4637,2.4637,0,0,0,1.0891.803v.315c-.4727,0-.96-.0561-1.4331-.0561s-.9463.0561-1.4195.0561v-.315a.1715.1715,0,0,0,.1577-.1718.68.68,0,0,0-.2148-.4594l-2.3794-2.78c-.2148-.2441-.5163-.6175-.86-.6175v2.8386c0,.6026.0716,1.0321.8033,1.19v.315c-.5163,0-1.0181-.0561-1.5342-.0561s-1.0035.0561-1.5192.0561v-.315Z"/><path class="cls-2" d="M70.0189,143.0137h.5447a2.2684,2.2684,0,0,0,2.3509,1.5189,1.8531,1.8531,0,0,0,1.8632-1.79c0-3.0254-4.8875-1.1616-4.8875-5.0461a3.0535,3.0535,0,0,1,3.3107-2.91,5.52,5.52,0,0,1,2.5517.66l.1437,1.5339H75.38a2.2633,2.2633,0,0,0-2.1645-1.5923,1.8163,1.8163,0,0,0-1.9349,1.8213c0,2.5225,4.8876,1.0608,4.8876,4.801a3.1529,3.1529,0,0,1-3.3538,3.1261,6.0478,6.0478,0,0,1-2.7955-.559v-1.5636Z"/><path class="cls-2" d="M82.4608,135.2733c-.53.0871-.5879.4594-.5879.96,0,1.3907-.057,3.0827-.057,4.6017v2.7813c0,.4731.1571,1.0172.7025,1.0321v.315c-.4878,0-.99-.0561-1.4767-.0561-.5017,0-.9889.0561-1.4766.0561v-.315c.4586-.0149.717-.4158.717-1.0321V141.552c0-1.7194-.1292-4.2431-.1292-5.1458,0-.5876-.0576-1.0607-.6454-1.1329v-.315c.4877,0,.9749.0573,1.4766.0573.4878,0,.9889-.0573,1.4767-.0573v.315Z"/><path class="cls-2" d="M93.87,136.8072h-.5449c-.1431-.8454-.5733-1.1043-1.39-1.1043H90.1293c0,1.2337-.0722,2.8111-.0722,4.5306v3.054c0,.8877.2724,1.16.9034,1.3608v.315c-.5593,0-1.1042-.0561-1.6484-.0561s-1.09.0561-1.6483.0561v-.315c.6589-.2142.86-.53.86-1.3608v-2.251c0-2.0643-.1147-4.1-.1432-5.3336H86.4449c-.8166,0-1.2467.2589-1.39,1.1043H84.51v-2.0207a6.5628,6.5628,0,0,0,1.6628.2291h6.3357a4.1772,4.1772,0,0,0,1.3621-.2291v2.0207Z"/><path class="cls-2" d="M97.8113,144.6483c.6881-.1157.8883-.4444.8883-1.1467V140.75l-2.68-4.4584a2.48,2.48,0,0,0-.86-1.0184v-.315c.4872,0,.989.0573,1.4762.0573s.9889-.0573,1.4767-.0573v.315a.49.49,0,0,0-.4587.5018,2.2292,2.2292,0,0,0,.2864.9026l1.8206,3.2121,1.7916-3.0826a2.0484,2.0484,0,0,0,.3155-1.0745c0-.3162-.3155-.4445-.6019-.4594v-.315c.43,0,.86.0573,1.3044.0573.43,0,.86-.0573,1.29-.0573v.315c-.4727.173-.7311.5728-1.1182,1.19l-2.5081,4.085v2.9531c0,.7023.2008,1.031.8312,1.1467v.315c-.5448,0-1.09-.0561-1.62-.0561-.5447,0-1.09.0561-1.6338.0561v-.315Z"/><path class="cls-3" d="M45.7,77.843V81.33c0,.1757.7943.4788.7943.4788H43.9932s.7474-.3031.7474-.4542v-2.94l-.7786.1287-.0113-.1388L45.7,77.843Z"/><path class="cls-3" d="M60.4412,79.7134a1.1714,1.1714,0,0,0-.6326.2036,3.0874,3.0874,0,0,0-.0481.5929c0,.4319.0559,1.1545.6646,1.1545.6007,0,.609-.5616.609-1,0-.3948-.024-.9509-.5929-.9509Zm1.286-1.7931a2.2487,2.2487,0,0,0-1.8549,1.7126,1.6769,1.6769,0,0,1,.8252-.2159,1.21,1.21,0,0,1,1.3619,1.1735c0,.7652-.6566,1.3021-1.5941,1.3021a1.587,1.587,0,0,1-1.7306-1.6176,2.7387,2.7387,0,0,1,2.9729-2.4309l.02.0762Z"/><path class="cls-3" d="M55.1834,79.7134a1.1711,1.1711,0,0,0-.6326.2036,3.0874,3.0874,0,0,0-.0481.5929c0,.4319.056,1.1545.6645,1.1545.6007,0,.6092-.5616.6092-1,0-.3948-.0241-.9509-.593-.9509ZM56.4693,77.92a2.249,2.249,0,0,0-1.8547,1.7126,1.6759,1.6759,0,0,1,.825-.2159,1.21,1.21,0,0,1,1.362,1.1735c0,.7652-.6567,1.3021-1.5941,1.3021a1.587,1.587,0,0,1-1.7307-1.6176A2.7387,2.7387,0,0,1,56.45,77.8441l.02.0762Z"/><path class="cls-3" d="M49.8893,79.7134a1.1748,1.1748,0,0,0-.6332.2036,3.0874,3.0874,0,0,0-.0481.5929c0,.4319.0565,1.1545.665,1.1545.6007,0,.6086-.5616.6086-1,0-.3948-.024-.9509-.5923-.9509ZM51.1752,77.92A2.2484,2.2484,0,0,0,49.32,79.6329a1.6759,1.6759,0,0,1,.825-.2159,1.21,1.21,0,0,1,1.362,1.1735c0,.7652-.6571,1.3021-1.5941,1.3021a1.5869,1.5869,0,0,1-1.7306-1.6176,2.7388,2.7388,0,0,1,2.973-2.4309l.0195.0762Z"/><path class="cls-3" d="M16.6823,44.4851a5.6887,5.6887,0,0,1,1.2451.6186,1.5034,1.5034,0,0,0-.12.4173c-.0553.339.0151.72-.0732,1.2608a2.4915,2.4915,0,0,1-2.758,2.2418,2.5948,2.5948,0,0,1-1.9119-3.1481,4.8525,4.8525,0,0,1,.5225-1.3351,2.9425,2.9425,0,0,0-.0191-.3366l1.2725.142s-1.2854.84-1.3989,1.5326a1.7733,1.7733,0,0,0,1.6315,2.0584A1.9437,1.9437,0,0,0,17.4257,46.45c.1085-.6628-.7434-1.9649-.7434-1.9649Z"/><path class="cls-3" d="M28.5549,25.6476l-2.7155,2.82s.18-.84-.0773-1.0884l-2.1048-2.0266c-.31-.2992-1.08-.0469-1.08-.0469l1.7172-1.7832s-.1958.8557.0515,1.094l2.168,2.087c.1947.1873.2976.1755.495-.03l.6432-.6683c.34-.3524.3569-1.6237.3569-1.6237l.5459,1.2657Z"/><path class="cls-3" d="M26.3433,21.5431l1.8061-1.46s-.2439.7792-.005,1.0745l1.8184,2.25c.2249.2784,1.0426.2092,1.0426.2092l-1.8067,1.46s.2-.7629-.0017-1.013l-1.8363-2.272c-.2388-.2953-1.0174-.2484-1.0174-.2484Z"/><path class="cls-3" d="M32.4166,21.5493c.2327.3793,1.0745.3692,1.0745.3692l-1.5075.9234s.278-.6924.1215-.948l-1.7513-2.8588c-.1936-.0095-.73-.0749-.73-.0749l1.2831-.7859,4.1659,1.0968L33.92,17.39c-.2747-.4486-1.127-.3714-1.127-.3714L34.4,16.0343s-.3747.6745-.2293.9111l2.0411,3.3325-.343.21-4.8947-1.2931,1.4425,2.3548Z"/><path class="cls-3" d="M58.9623,15.3356s.7092,1.27,1.2736,1.39a.7728.7728,0,0,0,.9771-.5247c.2255-1.0649-2.0756-1.5147-1.7757-2.93a1.3022,1.3022,0,0,1,1.6969-.8575,5.0564,5.0564,0,0,1,1.0466.4162.2129.2129,0,0,0,.1739-.0454l.1505.032-.11,1.1857s-.6975-1.1483-1.2479-1.2647c-.4-.0844-.7457.066-.8049.3446-.1387.6578,1.0214,1.03,1.6523,2a1.2981,1.2981,0,0,1,.2075,1.03,1.4549,1.4549,0,0,1-1.8033,1.0062,6.0525,6.0525,0,0,1-1.1735-.4871.1664.1664,0,0,0-.1746.0821l-.1857-.0391.0968-1.3385Z"/><path class="cls-3" d="M64.8427,13.5222l2.2.7428s-.7881.212-.9094.5722l-.9253,2.74c-.1146.339.3821.9923.3821.9923L63.39,17.8269s.7513-.2394.8541-.5442l.9342-2.7682c.1213-.36-.3356-.9923-.3356-.9923Z"/><path class="cls-3" d="M71.52,19.7449l-.49.9711a5.0015,5.0015,0,0,1-1.9091-.4481c-1.65-.8329-1.9806-2.154-1.3486-3.4058a2.4216,2.4216,0,0,1,3.42-.8749,10.1373,10.1373,0,0,1,1.2994.9425.2413.2413,0,0,0,.2383.014l.1632.0822L72.29,18.219l-.2607-.1315a1.4914,1.4914,0,0,0-.8161-1.7379,1.8012,1.8012,0,0,0-2.4666.9969,1.8956,1.8956,0,0,0,.636,2.6613,1.6481,1.6481,0,0,0,.783.1823l.4542-.8994c.165-.326-.4693-1.0639-.4693-1.0639L72.3154,19.32s-.6438.1247-.7953.4245Z"/><path class="cls-3" d="M74.8951,18.2918,76.8014,19.62s-.8161-.0168-1.0331.2948l-1.6535,2.3738c-.2041.2931.09,1.0594.09,1.0594L72.2987,22.02s.7887-.02.9727-.2842l1.67-2.3974c.217-.3115-.0459-1.0464-.0459-1.0464Z"/><path class="cls-3" d="M81.7045,31.0128l-2.46-3.0456s.811.2836,1.09.0587L82.6073,26.19c.3351-.2708.1807-1.0662.1807-1.0662l1.556,1.9265s-.825-.3009-1.0923-.0851L80.9109,28.856c-.21.17-.2109.2735-.032.495l.5829.7215c.3071.381,1.5661.5566,1.5661.5566l-1.3234.3837Z"/><path class="cls-3" d="M78.4587,27.0835,75.5809,24.43s.8435.1622,1.0863-.1013l1.9806-2.1479c.292-.3166.0235-1.0812.0235-1.0812l1.82,1.6786s-.86-.1767-1.0925.0755l-2.04,2.2122c-.1829.1986-.1684.3015.0408.4945l.6818.6287c.36.3317,1.6311.3216,1.6311.3216l-1.2535.5728Z"/><path class="cls-3" d="M85.5427,30.0938a2.5271,2.5271,0,0,0,.3564-1.1567l1.2982,2.1764s-.8469-.4642-1.1119-.0678l-1.4438,2.1424,2.7665-.2316c.2658-.04.306-.9771.306-.9771l.95,1.5929a3.1143,3.1143,0,0,0-1.3625-.2159l-4.2717.3569,2.5125-3.6195Z"/><path class="cls-3" d="M88.6728,36.011l-.0051-.0139-2.5024.7243c-.4637.1348-.7473.9033-.7473.9033l-.5459-1.5264a1.6913,1.6913,0,0,0,1.2059.2277l2.5439-.7395c.358-.1046.6259-.7433.6259-.7433l.5191,1.4509-2.4085,2.3743,3.3482.2529.5291,1.479a1.0174,1.0174,0,0,0-.9682-.2127l-2.4784,1.0729a1.4819,1.4819,0,0,0-.7328.9447l-.7747-2.1663s.5.55.9464.39c.11-.0391.2177-.0856.3182-.1292l2.3846-1.0314-.0045-.014-4.0312-.2959-.0587-.165,2.8364-2.7828Z"/><path class="cls-3" d="M89.1415,52.3214c-.4452-.0178-.9055.6869-.9055.6869l.0727-1.7664s.4207.6164.72.6287l3.3493.1387c.1163-.1555.47-.5649.47-.5649l-.0621,1.5024-3.2325,2.8493,2.2044.0917c.5252.0212.9363-.7293.9363-.7293l-.0778,1.8826s-.3517-.6868-.6292-.6981l-3.9042-.161L88.1,55.78,91.9,52.4355l-2.7587-.1141Z"/><path class="cls-3" d="M92.29,58.5211,91.8359,60.8s-.3116-.7552-.6841-.8291l-2.8364-.5649c-.3513-.0693-.9353.5068-.9353.5068l.4537-2.2776s.3345.7137.6494.7775l2.8655.5694c.3726.0738.9408-.461.9408-.461Z"/><path class="cls-3" d="M87.572,70.8289l.7288-1.4241-1.4626-.7495-.5392,1.0538a1.4755,1.4755,0,0,0,.085.9866L85.09,70.0335a1.341,1.341,0,0,0,.901-.6052l.4889-.9565-1.17-.5985c-.28-.1431-.3647-.1208-.4614.0672l-.556,1.0862c-.2165.4218.1538,1.3335.1538,1.3335l-.9811-.6007L85.47,65.8462s.0073.98.3255,1.1434L88.39,68.3175c.3507.18,1.0511-.2573,1.0511-.2573l-1.8342,3.5819-.9761-.4183s.7882-.0962.9414-.3949Z"/><path class="cls-3" d="M80.0338,76.6036s-1.452-.09-1.8575.32A.7734.7734,0,0,0,78.09,78.03c.7741.7651,2.3957-.9286,3.4248.0883a1.3016,1.3016,0,0,1-.1957,1.8906,5.0183,5.0183,0,0,1-.9157.6567,2.8048,2.8048,0,0,0-.1633.28l-.9391-.7326s1.343.0334,1.7384-.3671c.2875-.2908.3474-.6633.1448-.8636-.4781-.4721-1.4184.3032-2.5757.31A1.2949,1.2949,0,0,1,77.63,78.91a1.4548,1.4548,0,0,1,.1275-2.0617,6.0943,6.0943,0,0,1,1.0438-.7238.1658.1658,0,0,0,.0251-.1913l.1331-.1354,1.074.8056Z"/><path class="cls-3" d="M78.5,82.4542,76.67,83.885s.2562-.7753.0223-1.0751l-1.7814-2.2786c-.22-.282-1.0393-.2261-1.0393-.2261l1.83-1.43s-.2125.7595-.0151,1.0123l1.7994,2.3012c.2344.3,1.0135.2651,1.0135.2651Z"/><path class="cls-3" d="M58.5065,91.4272l-2.3107.2382s.6293-.52.59-.8983l-.2958-2.876c-.0364-.3569-.76-.7451-.76-.7451l2.3107-.2371s-.584.53-.5515.849l.2992,2.9063c.0392.3782.7177.763.7177.763Z"/><path class="cls-3" d="M53.9031,88.5152s-.942-1.1075-1.5192-1.1152a.7712.7712,0,0,0-.8563.7035c-.0145,1.0885,2.33,1.0829,2.3106,2.5294-.0094.7014-.6293,1.1824-1.4984,1.1713a5.102,5.102,0,0,1-1.1075-.2048,2.6485,2.6485,0,0,0-.3149.0761L50.7943,90.49s.9072.9913,1.47.9991c.4089.0056.7182-.2092.7221-.4944.009-.6725-1.202-.8122-2.0085-1.6412a1.2955,1.2955,0,0,1-.4038-.97,1.4553,1.4553,0,0,1,1.5739-1.338,6.0815,6.0815,0,0,1,1.2457.2505,2.0206,2.0206,0,0,0,.3445-.1118l.165,1.3312Z"/><path class="cls-3" d="M41.215,86.8753l.2869-1.0494a5.0064,5.0064,0,0,1,1.96.0582c1.7826.4866,2.371,1.7149,2.0018,3.0675a2.4219,2.4219,0,0,1-3.177,1.54,10.1024,10.1024,0,0,1-1.4616-.6644,2.1264,2.1264,0,0,0-.4122-.0135l.3519-1.29s.6958,1.4162,1.4285,1.6164a1.802,1.802,0,0,0,2.2184-1.4688,1.8954,1.8954,0,0,0-1.1546-2.48,1.6444,1.6444,0,0,0-.8043-.0235l-.265.9732c-.1556.6331.6723.9475.6723.9475L40.52,87.45s.6064-.25.6947-.5749Z"/><path class="cls-3" d="M26.82,77.2379l-.8972.9408,1.7435,1.6634.9078-.9509c.2668-.28.0884-1.066.0884-1.066l1.6965,1.6187s-.7932-.1321-1.0454.1331L27.307,81.68c-.2523.264-.0839,1.05-.0839,1.05l-1.6965-1.6187s.7686.1678,1.0505-.1275l.792-.83-1.744-1.6636-.7764.8133c-.2825.2965-.11,1.0571-.11,1.0571L23.0482,78.748s.7836.1622,1.056-.123l1.9963-2.0931c.2624-.2752.0833-1.0717.0833-1.0717l1.6915,1.6131s-.7831-.1208-1.0555.1646Z"/><path class="cls-3" d="M14.2688,59.1476l.0016.0146,2.5988-.1824c.4815-.0347.9206-.726.9206-.726l.2131,1.6075a1.6888,1.6888,0,0,0-1.1314-.4765l-2.6424.188c-.372.0279-.768.5962-.768.5962l-.203-1.5281,2.8538-1.8157-3.2208-.95-.2064-1.5571a1.0152,1.0152,0,0,0,.9018.4106l2.649-.5281a1.4791,1.4791,0,0,0,.9144-.77l.3027,2.281s-.3725-.6433-.843-.5807c-.1163.0146-.2309.0381-.339.0594l-2.5483.5078.0023.0145,3.879,1.1355.0229.1734-3.3577,2.1255Z"/><path class="cls-3" d="M91.5831,46.07a2.53,2.53,0,0,0,.8222-.8882l.2265,2.5243s-.5615-.7853-.9726-.5431l-1.9841,1.14L92.08,49.3983c.2561.08.642-.6885.642-.6885l.1656,1.8475a3.1241,3.1241,0,0,0-1.1338-.7854l-3.7487-1.6505L91.5831,46.07Z"/><path class="cls-3" d="M90.4627,62.5305a2.5193,2.5193,0,0,0,1.0969-.51l-.7462,2.422s-.2226-.94-.6942-.8715l-2.2686.3042,1.8111,1.9241c.207.1712.8553-.3936.8553-.3936l-.5465,1.773a3.1152,3.1152,0,0,0-.7518-1.1566l-2.8448-2.9478,4.0888-.5437Z"/><path class="cls-3" d="M15.9714,65.4391a2.5253,2.5253,0,0,0-.5873,1.0583L14.5624,64.1s.7328.6288,1.0739.2953l1.6552-1.5806-2.597-.49c-.268-.0156-.4592.8222-.4592.8222l-.6019-1.7552a3.1083,3.1083,0,0,0,1.2887.4923l4.034.7092-2.9847,2.8459Z"/><path class="cls-3" d="M32.0748,81.5c.2159-.3122-.1929-1.1455-.1929-1.1455L34.0443,81.85s-.92-.0951-1.1411.2238l-2.02,2.9465.7087.49c.4626.321,1.3854-.0884,1.3854-.0884l-.75.9-3.82-2.6446.5341-1.05s-.0581,1.0078.4044,1.3289l.7082.49L32.0748,81.5Z"/><path class="cls-3" d="M60.8686,87.1236c-.0861-.3692-.9788-.6253-.9788-.6253l2.5606-.6s-.6881.6187-.6.9957l.801,3.3683.839-.1957c.5476-.1287.8636-1.0874.8636-1.0874l.1644,1.16-4.5233,1.0582-.4206-1.1007s.7086.7193,1.2563.5918l.8389-.197-.8009-3.3683Z"/><path class="cls-3" d="M70.93,83.1836c-.1907-.3277-1.1193-.311-1.1193-.311l2.2721-1.3235s-.4766.7932-.2814,1.1277l1.8118,3.0786.7449-.4329c.4856-.2831.5068-1.2932.5068-1.2932l.4973,1.0616L71.3478,87.429l-.7243-.93s.8882.4811,1.3737.197l.745-.4329-1.8122-3.08Z"/><path class="cls-3" d="M89.0744,43.8883a.7174.7174,0,1,1,.7121.7232.7178.7178,0,0,1-.7121-.7232Z"/><path class="cls-3" d="M47.2945,89.0007a.7174.7174,0,1,1,.712.7238.7177.7177,0,0,1-.712-.7238Z"/><path class="cls-3" d="M14.346,51.5473a.7174.7174,0,1,1,.7115.7227.7169.7169,0,0,1-.7115-.7227Z"/><path class="cls-3" d="M20.4154,32.1186a2.399,2.399,0,0,0,3.4238-.7993,2.5141,2.5141,0,0,0-.3776-3.6686,2.3751,2.3751,0,0,0-3.4114.745,2.5578,2.5578,0,0,0,.3652,3.7229Zm.3558-1.0868a1.5891,1.5891,0,0,1-.57-2.3095c.6521-.8984,1.8822-.7277,2.8336-.0363.8155.5923,1.2456,1.4911.6488,2.3128-.6046.8335-1.7837.8531-2.9124.033Z"/><path class="cls-3" d="M40.3643,16.4056l1.2808-.4855a2.282,2.282,0,0,1,1.2435.0274L41.8834,14.79s-.0693.6338-.4457.7742l-1.3458.5459-1.1835-1.4454,1.9464-.6471a2.48,2.48,0,0,1,1.103.1661l-.8412-.7864-4.1374,1.4213a.7006.7006,0,0,1,.4328.8485l-.0581,3.1111a3.2528,3.2528,0,0,1-.3949,1.103l1.574-.5862s-.6824-.2836-.641-.6343l.0783-.8922,1.7289-.5274.9716,1.1914,3.8248-1.4661-.81-.8888s.283.6562-.1616.8217l-2.036.7959-1.1237-1.29Zm-.9168.5835-1.4386.4541.0654-2.1221,1.3732,1.668Z"/><path class="cls-3" d="M18.5321,36.0234l.12-.2578c.3731-.8016.3435-1.3788-.3652-1.7089-.7014-.3266-1.2032.0929-1.5018.735l-.16.3445,1.9068.8872Zm1.2847.5979c.3374.1572,1.0774-.3765,1.0774-.3765l-1.0784,2.3175s-.04-.8481-.4245-1.027l-2.6155-1.2171c-.3178-.1483-1.0729.3143-1.0729.3143.1343-.3407.2383-.598.3446-.8788.1465-.3831.3484-.8692.4592-1.1074.4531-.9738.8256-1.4448,1.3105-1.6221a1.1319,1.1319,0,0,1,.9028.0336,1.2652,1.2652,0,0,1,.61,1.4761c.5673-.2674,1.1987-.2557,1.8873-.5074a7.2338,7.2338,0,0,0,1.0561-.5722c-.0616.1494-.0924.2154-.1847.4139-.382.8212-.6583,1.1036-1.1147,1.27-.4849.1774-1.3592.2377-1.92.4923l-.2438.5229,1.0067.4682Z"/><path class="cls-3" d="M15.671,40.969l1.248,1.0231.3775-1.2736-1.6255.2505ZM17.1466,42.23l.6242.5118c.2724.221.8927-.4632.8927-.4632l-.5683,1.9174a2.3624,2.3624,0,0,0-.557-1.05l-3.4921-2.96h0l4.5939-.712a2.7527,2.7527,0,0,0,1.0018-.4945l-.6969,2.3515s-.1779-.8771-.52-.8189l-.8088.1336-.47,1.5847Z"/><path class="cls-3" d="M19.3353,69.18l-.1337-.2517c-.4145-.78-.8933-1.1054-1.5835-.7384-.6835.3636-.651,1.0158-.3188,1.6422l.1785.3345,1.8575-.9866Zm1.2272-.6153c.3288-.1746.349-1.0863.349-1.0863l1.1993,2.2575s-.7014-.48-1.0751-.2808l-2.5478,1.3537c-.31.1644-.396,1.046-.396,1.046-.19-.3133-.3333-.55-.4934-.8056-.2175-.3467-.4837-.8009-.6069-1.0336a2.7359,2.7359,0,0,1-.5045-2.0225,1.1279,1.1279,0,0,1,.5706-.7,1.2646,1.2646,0,0,1,1.546.4028c.1286-.6141.5179-1.1109.7327-1.8123a7.2691,7.2691,0,0,0,.1795-1.1869c.0823.1387.1164.2025.2188.396a1.9746,1.9746,0,0,1,.3417,1.6546c-.151.4944-.6292,1.2282-.7652,1.829l.2708.51.98-.5213Z"/><path class="cls-3" d="M23.7932,72.6614c-.6041-.8157-1.5907-.6758-2.4007-.0761-.9452.7-1.4777,1.8211-.8171,2.7138a1.59,1.59,0,0,0,2.3744.15c1.1214-.83,1.4565-1.96.8434-2.7876ZM20.219,75.345a2.3757,2.3757,0,0,1,.3144-3.478,2.5151,2.5151,0,0,1,3.6123.7418,2.3989,2.3989,0,0,1-.2663,3.5059,2.5574,2.5574,0,0,1-3.66-.77Z"/><path class="cls-3" d="M37.69,84.092c-.9207-.4274-1.7206.1678-2.1446,1.0817-.495,1.0672-.4262,2.3068.5806,2.7744a1.5894,1.5894,0,0,0,2.1569-1.0046c.5873-1.2653.3411-2.4175-.5929-2.8515ZM35.8348,88.16a2.3763,2.3763,0,0,1-1.3873-3.2051,2.5139,2.5139,0,0,1,3.5272-1.0763,2.4,2.4,0,0,1,1.4432,3.2063A2.56,2.56,0,0,1,35.8348,88.16Z"/><path class="cls-3" d="M83.5107,73.6055l-.1706.2271c-.53.7069-.62,1.2786.005,1.7473.6192.4643,1.1964.1578,1.621-.4094l.2282-.3042-1.6836-1.2608Zm-1.1126-.8715c-.2982-.2238-1.1321.1466-1.1321.1466l1.5332-2.0461s-.1354.839.2036,1.0929l2.3084,1.7295c.2808.21,1.1147-.0861,1.1147-.0861-.2013.3054-.3562.5359-.5184.7887-.2222.3456-.52.78-.6774.99-.6438.8591-1.1053,1.2428-1.6166,1.3166a1.1345,1.1345,0,0,1-.8764-.2193,1.2658,1.2658,0,0,1-.2931-1.5706c-.61.1455-1.2255.0035-1.9516.1075a7.2827,7.2827,0,0,0-1.1506.3423c.09-.1332.1343-.1913.2658-.367.5426-.7237.8714-.9429,1.3519-1.0124.5112-.0737,1.3793.0481,1.9812-.085l.3457-.462-.8883-.6656Z"/><path class="cls-3" d="M67.6634,87.4211l.0342-1.6131-1.235.4889,1.2008,1.1242Zm.0811-1.94.0173-.8066c.0056-.35-.9156-.4161-.9156-.4161l1.8593-.7373a2.3629,2.3629,0,0,0-.4822,1.0873l-.1722,4.5744h0l-3.3969-3.1749a2.7552,2.7552,0,0,0-1.0079-.4821l2.28-.9038s-.58.6812-.3238.915l.6051.5526,1.5365-.6085Z"/><path class="cls-3" d="M53.261,22.1428a2.45,2.45,0,0,0-.7266-.9235l2.4555.1661s-.839.42-.669.85l.7921,2.0762,1.4157-2.14c.1158-.2338-.5627-.72-.5627-.72l1.7976.1213a3.0267,3.0267,0,0,0-.9257.9682L54.685,25.8859l-1.424-3.7431Z"/><path class="cls-3" d="M33.0934,29.6474a2.4507,2.4507,0,0,0-1.1583-.1962l1.9313-1.526s-.34.8743.0749,1.08l1.9812,1.0068-.3876-2.5366c-.071-.2506-.9005-.1561-.9005-.1561l1.4134-1.117a3.0246,3.0246,0,0,0-.0358,1.3391l.6505,3.9244-3.5691-1.818Z"/><path class="cls-3" d="M70.9529,28.2956a2.4525,2.4525,0,0,0,.0033-1.1752l1.8229,1.6533s-.9183-.1907-1.052.2523l-.6841,2.243,2.4555-.9235c.2354-.1118.0055-.9139.0055-.9139l1.3341,1.21a3.02,3.02,0,0,0-1.3262.1851l-3.7633,1.2876,1.2043-3.8191Z"/><path class="cls-3" d="M40.8453,27.8352c.1566.3339,1.0561.3977,1.0561.3977L39.59,29.3175s.5285-.7261.3691-1.0667l-1.4884-3.134-.7573.3557c-.4945.2316-.6013,1.2065-.6013,1.2065l-.39-1.0689,4.0838-1.9168.6208.961s-.8178-.541-1.3122-.3089l-.7579.3558,1.4884,3.134Z"/><path class="cls-3" d="M59.3886,22.91l-.014-.0044-.8793,2.3721c-.1628.44.2735,1.1052.2735,1.1052l-1.5074-.4552a1.6432,1.6432,0,0,0,.8748-.81l.8921-2.4125c.1247-.34-.2192-.9183-.2192-.9183l1.4324.4329.4626,3.2514,2.1312-2.4678,1.46.4413s-.6114.1337-.7249.6327l-.5941,2.555a1.4393,1.4393,0,0,0,.3144,1.1169l-2.1384-.6459s.7183-.0722.8514-.5135c.0329-.1085.0587-.2193.0828-.3233l.5722-2.4572-.014-.0039L60.0861,26.78l-.1633-.0492L59.3886,22.91Z"/><path class="cls-3" d="M76.8685,33.6988l-.9553-1.2244-1.2586.9811.707.9061c.24.3076.9039.3294.9039.3294l-1.1125.8681a1.3017,1.3017,0,0,0-.1645-1.0415l-.6415-.8223-1.0068.7854c-.24.1879-.2557.2719-.1292.4341l.7288.9341c.2836.3629,1.2378.41,1.2378.41l-.93.6175L71.6208,33.51s.8659.3955,1.1405.1813l2.2312-1.7407c.302-.2355.203-1.0308.203-1.0308l2.4034,3.0813-.7668.6886s.2367-.7338.0364-.9911Z"/><path class="cls-3" d="M49.0435,23.8062l.2752-.0285c.8536-.0889,1.3207-.4016,1.2417-1.1562-.0782-.7478-.6773-.9563-1.3619-.8848l-.3664.038.2114,2.0315Zm.1176,1.3638c.0374.36.8512.71.8512.71l-2.4694.2573s.6869-.4563.6443-.8659l-.29-2.786c-.0358-.339-.7971-.7373-.7971-.7373.35-.0581.617-.1.9039-.1515.3921-.0693.8978-.1432,1.1518-.17A2.6543,2.6543,0,0,1,51.16,21.71a1.0989,1.0989,0,0,1,.4228.7686,1.2289,1.2289,0,0,1-.9256,1.2446c.5061.34.811.8708,1.3642,1.3194a6.9985,6.9985,0,0,0,1.0034.5946c-.155.0229-.2254.03-.4368.0526a1.9191,1.9191,0,0,1-1.6143-.2953c-.3893-.3161-.8754-1.0141-1.3676-1.3548l-.5571.0582.112,1.0723Z"/><path class="cls-3" d="M30.41,36.826c.3882.2741.481.2528.7959-.1929a1.8111,1.8111,0,0,0-.424-2.7565,2.057,2.057,0,0,0-1.4794-.4015,2.0324,2.0324,0,0,0-1.3089.9687,3.72,3.72,0,0,0-.29.4721l2.7061,1.91Zm-3.8774-.731c.2037-.325.4458-.6925.6125-.9654.1868-.3021.3306-.5309.5314-.8144.8178-1.159,1.3475-1.6015,2.0784-1.7274a2.0563,2.0563,0,0,1,1.5606.372,2.2705,2.2705,0,0,1,.9179,1.455,3.0712,3.0712,0,0,1-.7959,2.3816l-1.3,1.8431s.0795-.7518-.2511-.9851L27.6488,36.076c-.4111-.2909-1.1165.019-1.1165.019Z"/><path class="cls-3" d="M25.7342,40.76l1.1024,1.1131.4923-1.1919-1.5947.0788Zm1.2982,1.3665.5515.5565c.2411.2406.9089-.358.9089-.358l-.74,1.795a2.298,2.298,0,0,0-.4329-1.07L24.2429,39.842h0l4.5084-.2283a2.6727,2.6727,0,0,0,1.0169-.3775L28.86,41.4378s-.084-.8648-.42-.8429l-.7943.0481-.613,1.4839Z"/><path class="cls-3" d="M66.1611,29.0288c.8653.4727,1.6779-.0531,2.1473-.9117.5475-1.0023.56-2.2077-.386-2.7245a1.5431,1.5431,0,0,0-2.154.8351c-.65,1.1891-.4849,2.3217.3927,2.8011Zm2.0567-3.8225a2.3064,2.3064,0,0,1,1.14,3.1933,2.4411,2.4411,0,0,1-3.4864.8188A2.33,2.33,0,0,1,64.6777,26.02a2.4841,2.4841,0,0,1,3.54-.8133Z"/><path class="cls-3" d="M68.3452,32.4889c-1.4945-1.2233-.9894-1.0454-1.3977-2.338s-.1287-3.1245-.419-3.3293.6483-.2779.9671,2.49.85,3.177.85,3.177Z"/><path class="cls-3" d="M31.2286,88.4593a42.3806,42.3806,0,1,1,.25.1466l-.6875-.3737-.4877.7025.6975.4542a43.8232,43.8232,0,1,0-.2506-.1476l.528.2673.4156-.7462-.4653-.3031Z"/><path class="cls-3" d="M35.77,79.4113A32.53,32.53,0,0,1,44.7086,20.222l.2523-.7478A33.1892,33.1892,0,0,0,35.4247,79.97l.5062.2753.3015-.5292-.462-.3044Z"/><path class="cls-3" d="M35.7318,80.1576A33.1843,33.1843,0,1,0,46.6312,19.1117l-.1081.6964A32.5118,32.5118,0,1,1,36.0316,79.51l-.4995-.2854-.5023.4441.702.489Z"/><path class="cls-3" d="M52.5053,16.0018a1.9313,1.9313,0,0,1-1.5023-.8463"/><path class="cls-3" d="M52.99,13.3438l1.1132-1.0745a1.93,1.93,0,0,1,.7182,1.5678l-1.5422.127,1.3821.7322a1.9279,1.9279,0,0,1-1.2691,1.1679l-.6141-1.4331-.273,1.5707a1.9313,1.9313,0,0,1-1.5023-.8463L52.18,14.0989l-1.5023.2389a1.93,1.93,0,0,1,.3406-1.691l1.2927.78-.6814-1.2982a1.9316,1.9316,0,0,1,1.7139-.1987l-.353,1.4135Z"/><path class="cls-3" d="M68.8229,42.7243a.9407.9407,0,0,1-.7864-.6092.5453.5453,0,0,1,.2075-.5767.263.263,0,0,0,.0358.0392l.0392.0453.0016-.0117c.0655.0464.1572.0084.2467.0045.2014-.009.24-.0862.2321-.2707a.2957.2957,0,0,0-.36-.2949.8.8,0,0,1-.59-.0134c-.0548-.0369-.0642-.2047-.0212-.345.014-.0822.0912-.2551.09-.2982-.0062-.1269-.1583-.2175-.2965-.2115a.2639.2639,0,0,0-.2612.2451c.0078.1784.1219.25.2.3389a.2351.2351,0,0,1,.0342.311,1.6847,1.6847,0,0,1-.3749.1667l.0074.014a.4229.4229,0,0,0-.0806-.005c-.2014.0089-.3406.1051-.3329.29a.288.288,0,0,0,.3178.3043.3718.3718,0,0,0,.3009-.17.6435.6435,0,0,1,.2573.5157c-.04.2848-.0615.5152-.5974.6824a.7288.7288,0,0,1-.71-.1253.504.504,0,0,1-.5247.3356c-.6047-.0687-.7138-.7982-.7138-.7982a.4219.4219,0,0,0,.3765-.3155c.1063-.2745-.0755-.4435-.3725-.4837-.179-.024-.4066.2534-.6567.1465s.13-.5968-.1969-.7825c-.3009-.1711-.4742.22-.4742.22a11.6938,11.6938,0,0,1,1.0627,1.3447c.4816.6947,1.1562,1.5209,1.1562,1.5209l-.3435.23s-.466-.7244-1.2031-1.72c-.6293-.8491-1.1193-1.3777-1.1193-1.3777s-.019-.0711.1566-.2512c.2227-.2287.5628-.5448.9711-.36s.2013.8244.2013.8244a.7.7,0,0,1,.5856-.1936.7507.7507,0,0,1,.6824.7658.779.779,0,0,1-.3931.6158s-.046.1919.331.1527c.2294-.0229.3821-.363.3821-.363.0174-.0056.5694.5074.868.1174a.916.916,0,0,0,.0689-.1258.67.67,0,0,1-.1443.0179.6988.6988,0,0,1-.02-1.3972.5772.5772,0,0,1,.2343.0263h0a.6068.6068,0,0,1-.3467-.5218.72.72,0,0,1,.6572-.6567.7436.7436,0,0,1,.7215.6108.6788.6788,0,0,1-.194.4569h0a.533.533,0,0,1,.4127-.1454.6988.6988,0,0,1,.02,1.3972.8023.8023,0,0,1-.09-.0083l.0157.0157a.9312.9312,0,0,0,.4468.1917c.462.084.5158-.28.5158-.28a.5161.5161,0,0,0,.443.1387c.36-.1185.2852-.34.2852-.34a.6852.6852,0,0,1-.6159-.3652.5373.5373,0,0,1,.1595-.8278,1.05,1.05,0,0,1,.7355-.0788s-.3921-.46-.0945-.7955.726-.1834,1.023-.0654a3.3541,3.3541,0,0,1,.38.1767,5.7475,5.7475,0,0,0-.54,1.5567c-.2958,1.3374-.471,2.0611-.471,2.0611l-.3663-.0995s.207-1.1612.4167-2.0159a4.3387,4.3387,0,0,1,.4536-1.2719s-.3659-.3261-.5711-.047c-.2226.3032.2892.5358.1051.7356s-.5151-.0017-.6688.0934c-.2551.1577-.2316.2584-.0835.4681a.4453.4453,0,0,0,.4576.1315s.2371.7366-.287,1.0459a.6077.6077,0,0,1-.6616-.0548s-.1069.3334-.7317.32Z"/><path class="cls-3" d="M68.0063,44.0315c.868-.0918,1.4487-.2517,1.41-.4833-.0252-.1482-.7367-.1958-1.6054-.1046s-1.5571.2858-1.5392.4346.8669.2444,1.735.1533ZM65.61,44.01c-.042-.3675,1.0807-.7942,2.5081-.9531s2.6176.01,2.66.377-1.0807.7938-2.5076.9531-2.6178-.01-2.66-.377Z"/><path class="cls-3" d="M77.7132,41.4378a.9427.9427,0,0,1-.7871-.61.5444.5444,0,0,1,.2081-.5761.347.347,0,0,0,.0357.0391c.0231.0257.0387.0448.0387.0448l.0017-.0113c.0659.046.1577.008.2472.0041.2008-.0085.24-.0856.2316-.27a.295.295,0,0,0-.36-.2947.7984.7984,0,0,1-.59-.0134c-.0548-.0375-.0649-.2047-.0218-.3452.0139-.0822.0911-.255.0894-.2986-.0055-.1264-.1577-.2171-.2963-.2109a.2639.2639,0,0,0-.2613.245c.0079.1784.122.2506.2.3384a.2349.2349,0,0,1,.0342.3115,1.7,1.7,0,0,1-.3742.1667l.0073.014a.3879.3879,0,0,0-.0811-.005c-.2008.009-.3406.1046-.3328.2892a.2881.2881,0,0,0,.3182.3048.3722.3722,0,0,0,.3-.17.6412.6412,0,0,1,.2572.5151c-.04.2847-.0609.5157-.5972.683a.7286.7286,0,0,1-.7105-.1259.5042.5042,0,0,1-.5246.3362c-.6046-.0694-.7131-.7982-.7131-.7982a.4223.4223,0,0,0,.3758-.3161c.1063-.274-.0755-.4435-.3725-.4833-.179-.024-.4067.2534-.6566.1461s.13-.5962-.1963-.7825c-.3016-.1712-.475.22-.475.22A11.695,11.695,0,0,1,73.7714,41.13c.4811.6947,1.1556,1.5208,1.1556,1.5208l-.3429.23s-.4664-.7249-1.2037-1.72c-.6287-.849-1.1192-1.3776-1.1192-1.3776s-.0184-.0716.1566-.2517c.2232-.2287.5627-.5442.9711-.36s.2013.8244.2013.8244a.7011.7011,0,0,1,.5862-.1935.7514.7514,0,0,1,.6824.7657.7806.7806,0,0,1-.3938.6158s-.0458.1919.3312.1527c.2293-.0235.3826-.3629.3826-.3629.0167-.0056.5687.5067.8675.1168a.8981.8981,0,0,0,.0687-.1259.67.67,0,0,1-.1442.018.6986.6986,0,0,1-.019-1.3967.5721.5721,0,0,1,.2338.0258h0a.6047.6047,0,0,1-.3463-.5214.72.72,0,0,1,.6572-.6571.744.744,0,0,1,.721.6113.6818.6818,0,0,1-.1935.457h0a.5318.5318,0,0,1,.4123-.1455.6986.6986,0,0,1,.0194,1.3967.66.66,0,0,1-.0894-.0079l.0157.0157a.9212.9212,0,0,0,.4463.1913c.4626.0839.5163-.28.5163-.28a.5162.5162,0,0,0,.4425.1393c.36-.1187.2852-.34.2852-.34a.687.687,0,0,1-.6158-.3653.5372.5372,0,0,1,.1593-.8277,1.0571,1.0571,0,0,1,.7361-.08s-.3926-.46-.095-.7948.7266-.1835,1.023-.0654a3.2878,3.2878,0,0,1,.3809.1767,5.7439,5.7439,0,0,0-.54,1.5567c-.296,1.3367-.4716,2.0611-.4716,2.0611l-.3663-.1s.2069-1.1607.4172-2.0153a4.3429,4.3429,0,0,1,.4531-1.272s-.3658-.3261-.5711-.047c-.2226.3027.29.5359.1052.7355s-.5152-.0017-.669.0935c-.2545.1572-.2315.2584-.0828.4681a.4443.4443,0,0,0,.457.1315s.2372.7361-.2869,1.0454a.6064.6064,0,0,1-.6612-.0543s-.1073.3329-.7315.32Z"/><path class="cls-3" d="M76.8959,42.7443c.8687-.091,1.4487-.2516,1.41-.4831-.0251-.1482-.7366-.1952-1.6047-.1041s-1.5578.2859-1.54.4345.867.2445,1.7351.1527ZM74.5,42.7226c-.0421-.3669,1.0806-.7937,2.5074-.9531s2.6184.01,2.66.377-1.0812.7942-2.5076.9531-2.6182-.01-2.66-.377Z"/><path class="cls-3" d="M74.0366,47.5055a.9417.9417,0,0,1-.787-.6091.5456.5456,0,0,1,.208-.5762.324.324,0,0,0,.0359.0392c.0229.0258.0386.0448.0386.0448l.0021-.0112c.0655.0458.1572.0078.2467.0039.2014-.009.24-.0862.2322-.27a.2952.2952,0,0,0-.36-.2948.8.8,0,0,1-.59-.0135c-.0549-.0375-.0644-.2047-.0213-.3451.0139-.0828.0911-.2551.089-.2987-.0057-.1263-.1578-.2169-.2959-.2113a.2638.2638,0,0,0-.2613.2455c.0079.1784.122.25.1992.3383a.2352.2352,0,0,1,.0346.3111,1.6841,1.6841,0,0,1-.3747.1672l.0072.014a.3773.3773,0,0,0-.0805-.005c-.2014.0083-.3412.1045-.3328.2892a.2877.2877,0,0,0,.3176.3048.3719.3719,0,0,0,.301-.17.642.642,0,0,1,.2568.5151c-.04.2848-.0611.5158-.5974.683a.7283.7283,0,0,1-.71-.1258.5046.5046,0,0,1-.5246.3361c-.6047-.0693-.7137-.7986-.7137-.7986a.4219.4219,0,0,0,.3764-.3155c.1063-.2742-.0761-.4436-.3731-.4833-.1783-.0247-.4061.2534-.656.1459s.13-.5963-.1969-.7825c-.301-.1711-.4744.22-.4744.22a11.7574,11.7574,0,0,1,1.0628,1.3446c.4816.6948,1.1561,1.5209,1.1561,1.5209l-.3434.2294s-.4659-.7243-1.2036-1.7195c-.6288-.849-1.1188-1.3781-1.1188-1.3781s-.019-.0711.1566-.2513c.2227-.2287.5627-.5442.9705-.36s.202.8244.202.8244A.7015.7015,0,0,1,70.5,45.87a.7515.7515,0,0,1,.6824.7663.7805.7805,0,0,1-.3933.6158s-.0458.1913.3312.1527c.2293-.0235.382-.363.382-.363.0173-.0062.5689.5068.8681.117a.9206.9206,0,0,0,.0688-.1259.6784.6784,0,0,1-.1443.0178.6988.6988,0,0,1-.02-1.3972.5808.5808,0,0,1,.2344.0269h0a.6071.6071,0,0,1-.3469-.5224.72.72,0,0,1,.6573-.6567.7455.7455,0,0,1,.7216.6113.6767.6767,0,0,1-.1942.4565h0a.5373.5373,0,0,1,.4129-.1454.6988.6988,0,0,1,.019,1.3971.5933.5933,0,0,1-.09-.0083l.0156.0163a.9263.9263,0,0,0,.4464.1913c.4626.0838.5163-.28.5163-.28a.5158.5158,0,0,0,.443.1382c.36-.1181.2852-.34.2852-.34a.6867.6867,0,0,1-.6158-.3652.5369.5369,0,0,1,.1594-.8279,1.0527,1.0527,0,0,1,.7355-.0794s-.3926-.46-.0945-.7947.726-.1841,1.023-.0661a3.2655,3.2655,0,0,1,.38.1773,5.7434,5.7434,0,0,0-.54,1.5561c-.2959,1.3374-.4709,2.0617-.4709,2.0617l-.3664-.1s.2069-1.1611.4166-2.0158a4.3579,4.3579,0,0,1,.4537-1.2719s-.3664-.3256-.5711-.0465c-.2226.3032.2893.5359.1046.7356s-.5151-.0017-.6684.0933c-.255.1578-.2321.2585-.0833.4682a.4451.4451,0,0,0,.4575.1315s.2372.736-.2875,1.0459a.6082.6082,0,0,1-.6611-.0548s-.1068.3328-.7316.3194Z"/><path class="cls-3" d="M73.22,48.8127c.8681-.0912,1.4487-.2517,1.41-.4833-.0252-.1477-.7373-.1958-1.6054-.104s-1.5572.2858-1.5393.4346.8671.2439,1.7351.1527Zm-2.3962-.0218c-.0419-.3675,1.0807-.7937,2.5076-.9532s2.6182.01,2.66.377-1.0806.7937-2.5074.9532-2.6184-.01-2.66-.377Z"/><path class="cls-3" d="M55.7768,39.7257c-1.1577,1.2848-.3981,3.1294-.6633,4.76-.4576,1.3273-1.853,2.1657-2.2692,3.5126a3.17,3.17,0,0,0,.3535,2.4572c.038-.1041-.066-.1634-.089-.2451-.2276-1.5962.27-2.7362,1.6579-4.0926,2.1166-2.39-.3591-4.3232,1.6479-6.1236l-.6378-.2685Z"/><path class="cls-3" d="M60.71,54.8049a10.1184,10.1184,0,0,0,2.5528-.3971c.9341-.2819,1.687-.546,2.5523-.8469A15.0883,15.0883,0,0,1,70.68,52.5083l.2367.0011a5.3868,5.3868,0,0,1,1.5476.2461,5.2718,5.2718,0,0,1,.8374.453c1.2451,1.0807,1.33,1.687,2.9,2.6592.7059.2685,1.3738,1.0168,1.9325,1.1668a11.8063,11.8063,0,0,1-.9754-.8446,42.55,42.55,0,0,0-3.3851-3.3315,5.9019,5.9019,0,0,0-2.4455-.7775,10.1962,10.1962,0,0,0-5.1559.8055,19.6458,19.6458,0,0,1-3.7862.8871,3.1241,3.1241,0,0,1-1.5757-.0861c-.2114-1.6915-.8155-1.3592-.5946-3.3572a9.1351,9.1351,0,0,0-.415-6.2976,2.2847,2.2847,0,0,0-.3043-2.17c-.4643-.46-1.721-.57-1.9661.2584.141.6539.9985.2557,1.4174.5526.4967.131.4575.7278.377,1.05-.1175.9694-1.2383,1.4678-1.9733,1.6518.2818.5638,1.4044.1963,1.7674-.1359a5.3615,5.3615,0,0,1,.7854,2.1143c.0922,1.93-.4637,1.843-1.1886,3.0819a3.4492,3.4492,0,0,0,.2014,2.8392c-.141-2.0136.1207-2.1343.6845-3.0406a7.12,7.12,0,0,0-.1806,1.611c.0235.9364.5134,1.2082.5487,2.0494a2.91,2.91,0,0,1-.65,1.5952c-.88,1.16-2.4364,1.027-3.0607,3.9882,1.1478-1.6915,1.41-2.1357,2.4768-2.74,1.43-.6042,1.65-1.0774,1.9739-1.9331Z"/><path class="cls-3" d="M48.84,44.3016c-.1343-.4071-.2534-.8116-.6875-.9028-.4374-.2354-.84.8648-.9866-.015-.1779-.5091.4178-.8888-.1461-1.3118-.4631-.7053.2216-.8663.027-1.6236-.0359-.5538-.1276-1.2765.6426-1.3118a6.4869,6.4869,0,0,1,3.4589.06,1.22,1.22,0,0,0,.461-.6238,2.1106,2.1106,0,0,1,.863.08c.3429.1409.7311.3563.7311.3563-.3339.0419-.9073.1018-.867.565.2215.5436.7384-.2182,2.1227.6795.1062.1175.3076.19.353.537-.655-.2937-1.0013-.19-1.5388-.4324a1.5717,1.5717,0,0,0-.9973-.0794c-.1661.03-.8458.52-.8206.1678a2.419,2.419,0,0,0-.0956-.54c-.1058-.3322-.2573-.2987-.5538-.3977a5.965,5.965,0,0,0-2.92-.1007.649.649,0,0,0-.31.8614c.2679.5342.3652.4469.6521.4323.2422-.1409.3788-.4961.7887-.528.3043.02.5554.0057.646.3322l.005.1847c-.109-.2433-.4374-.1348-.604-.0593-.0755.0755-.1354.1509-.0755.2416.1079.1823.2349.0968.4005.1337-.1461.2534-.8234.3317-1.267.28-.16-.0214-.175.2175-.2561.2606-.1589.21-.06.401.0078.6253.6769.8149,1.8228.877,2.701,1.4493a1.4257,1.4257,0,0,1,.4833.6947c-.4161-.1941-.5168.4508-.5134.5739l.1845-.1131a3.3442,3.3442,0,0,0,.51-.2494c.2322.22.1511.5744.2137.8575a7.1543,7.1543,0,0,1,.179-.8167,5.7879,5.7879,0,0,1-.6292,5.302c-.7854,1.6109-.69,1.9455-.6041,4.1279-1.0678-2.2552-.2595-3.3906-.0353-4.7862a.4237.4237,0,0,0-.151-.4246,2.0815,2.0815,0,0,1-.5286,1.6009,2.9291,2.9291,0,0,0-.4385,3.0059,4.6177,4.6177,0,0,1,.509,2.4565,5.5029,5.5029,0,0,0-.06,2.9411h0a4.3876,4.3876,0,0,1-.5208-3.0652,3.2822,3.2822,0,0,0-.6045-2.1679l.279.2382c-.2718,1.8526-2.809,2.0338-1.8726,4.5418a8.4966,8.4966,0,0,1,1.0873,2.1848c-.538-.9106-1.19-.9754-1.6473-1.9487-1.2188-.2349-2.1864.6511-3.3672,1.0169a2.17,2.17,0,0,1-2.5226-.4833c2.145.7853,3.6273-.6175,4.99-1.1478.7736-.3456.4565-.9038.5588-1.3916.2489-1.4655,1.6333-1.4051,2.0478-2.8135a6.7422,6.7422,0,0,1,.2126-2.6972c.3624-.7864.9307-.5693,1.0089-1.5683.339-1.1607-1.3753-1.2736-1.04-2.7055a2.5236,2.5236,0,0,0,.9167.6052,5.716,5.716,0,0,1,1.6467,1.2266,3.3013,3.3013,0,0,0-.7249-1.1081l-.584-.443c.0555-.2276.3279-.3573.55-.5145-.0649.6594.7445.967,1.0638,1.3692a5.4808,5.4808,0,0,0-.2572-2.7055.5409.5409,0,0,0-.4906.22,1.8991,1.8991,0,0,1,.0068-1.3989c.0078-.2417-.2081-.0917-.3289-.0716a2.02,2.02,0,0,0-.3049.1913l-.3227-.5465a1.2352,1.2352,0,0,0-.6337.6919m-.2607-1.1a1.1566,1.1566,0,0,1,.2607.5274c.1856.0364.2394-.2736.382-.2976l-.6427-.23Zm-.8988-.5717c-.0968.2287-.3564.5236-.1857.745l.3976-.5039a.7705.7705,0,0,1-.2119-.2411ZM49.86,45.0327c.5235.3764.64.8312,1.0829,1.2507-.2075-.0548-1.4627-.9845-2.1411-.7188-.9632.0872-2.2447.9542-3.09.0521A2.6245,2.6245,0,0,1,44.6494,43.8a2.7149,2.7149,0,0,0,2.7139,1.592,5.3483,5.3483,0,0,1,1.5494-.1987,1.5165,1.5165,0,0,1,1.0784.3479,2.2054,2.2054,0,0,0-1.5617-.71c-1.42.03-2.9.6645-3.78-1.0309.8194.6377,2.5125.7031,3.9221.68a2.0928,2.0928,0,0,1,1.2881.5521Z"/><path class="cls-3" d="M58.6928,43.3227a1.1663,1.1663,0,0,1-.2239.8486c-.0983.1667-.2823.1924-.4245.2579.014-.2473.54-.5287.2237-.8486l-.5665-.4374c.22-.2316.8563-.2483.9912.1795Z"/><path class="cls-3" d="M49.4183,46.93a.5161.5161,0,0,1-.4027-.0783c-.52-.2327.06-.4465.0939-.7148.19.18.1589.5508.3088.7931Z"/><path class="cls-3" d="M51.5533,52.7118a6.8563,6.8563,0,0,1-.2769,2.4019,5.6808,5.6808,0,0,1-.7534,1.5918,9.5424,9.5424,0,0,0,.6763-2.8179,11.1837,11.1837,0,0,1,.4659-3.2342l.34-.9664a13.07,13.07,0,0,0-.452,3.0248Z"/><path class="cls-3" d="M38.8333,63.6413c.2567-.3176.4156-.2348.5588-.2874.179.18.1242.39.4016.5224.4038.1969.9682-.2024,1.2513-.3961a3.2465,3.2465,0,0,0,1.2165.508c.4436,0,.6047-.443,1.0074-.443s.6444.5045.6444.5045.4044-.038,2.5377-.3837c2.1143-.3423,1.6109,1.0281,1.6109,1.0281a1.9107,1.9107,0,0,0,1.6729-.7674,5.8011,5.8011,0,0,0,1.489-2.5764c.1813-.9263.2215-4.4311.2215-4.4311a13.0587,13.0587,0,0,0-.6645,2.4779,6.17,6.17,0,0,1-1.0269,3.1412,2.7332,2.7332,0,0,1-.8462.5438c.0665.0122-.2311-.5281-.4833-.725a1.5109,1.5109,0,0,0-.6847-.3222,6.49,6.49,0,0,1-2.1551,1.027c-.584-.04.0408-1.027.0408-1.027s-1.7725.6646-2.6787.9263-1.0778-.1958-1.0778-.1958a3.6251,3.6251,0,0,1-1.9331.3625c-.5057-.2875-.74-.5594-.9671-.2573l-.5129.5594c-.4989-1.1479.8323-1.57,1.2188-1.9711l-.8485-.0941a.6871.6871,0,0,1-.4453-.773,8.9681,8.9681,0,0,0-1.2842.3088c.0721-.9464,1.2278-.537,1.6831-1.1478a.6123.6123,0,0,1,.801-.104s-1.0528-.67-.9744-.9621c.2718-1.0113,1.9772.5147,2.3772.735-.1265-.1912-.2775-.282-.4285-.5235a1.7347,1.7347,0,0,0-3.2023.03c.0879.1521.68-.3267.74.076.1209.2014.28.4128.3306.4811a8.462,8.462,0,0,1-1.0706.3792c-1.1024.3937-1.1326,1.8581-1.1326,1.8581A12.7833,12.7833,0,0,0,37.699,61.37a1.4465,1.4465,0,0,0,.1521-.0547c.1661.5738.6953.1812.0755,1.2685-.3333.5773.287,1.6468.287,1.6468a1.4893,1.4893,0,0,0,.62-.59Z"/><path class="cls-3" d="M53.6357,55.4549a9.8627,9.8627,0,0,0-1.36,3.8662c-.3267-1.47.03-2.6581,1.1936-4.637,1.6613-2.4465.7876-4.8305.891-5.5732,1.2988,4.47-.2338,5.5083-.7249,6.344Z"/><path class="cls-3" d="M48.3035,58.0077a5.9684,5.9684,0,0,0,.5739,1.48,3.6359,3.6359,0,0,1,.2422,2.6882,6.6621,6.6621,0,0,0-.8972-2.8728,3.6725,3.6725,0,0,1-.3719-2.2933,2.4768,2.4768,0,0,1,.5739-.9967,3.057,3.057,0,0,0-.1209,1.9946Z"/><path class="cls-3" d="M52.9108,60.8021a9.1779,9.1779,0,0,1-1.3446,1.6758c.302-2.37,1.7826-2.7183,2.4169-5.6192a8.5649,8.5649,0,0,1-1.0723,3.9434Z"/><path class="cls-3" d="M62.8492,64.11a4.7132,4.7132,0,0,1,.8614.2863,7.8309,7.8309,0,0,0-1.4285-.2863,1.72,1.72,0,0,1-.4655-.0134,8.9775,8.9775,0,0,0-3.1614-.0671c-1.3714.575-2.8648,1.6981-3.1356,2.47-.7271,1.5325-2.5383.2628-3.7471,1.7138-.3171-.3412.141-.8872.8212-1.31.5067-.26,1.7647.1164,2.2435-.46.2853-.3019-.3781-1.0145-1.2087-.6711-1.0824.4195-1.0908.9732-1.715,1.3335A2.0984,2.0984,0,0,1,53.71,65.2589c.551-.1376,1.0729.1768,1.6864.0582a15.6869,15.6869,0,0,1,1.9247-1.1019,4.63,4.63,0,0,1,1.6915-.4833,16.8107,16.8107,0,0,1,3.8365.3782Z"/><path class="cls-3" d="M49.8976,47.171a2.4252,2.4252,0,0,1-.4139-.109c-.32-.1046-.6924-.2724-.7439-.2882-.1555-.0475-.2421-.0793-.2421-.0793a.2357.2357,0,0,1,.1683-.1075,2.7859,2.7859,0,0,1,.8457.2518,2.4736,2.4736,0,0,1,.5225.3115l-.1366.0207Z"/><path class="cls-3" d="M59.1435,40.9439a.6984.6984,0,0,0,.061.4033c.1.2617.1806.4631.1806.4631s-1.2887.04-1.188-.1409.2014-.3424.141-.4637a3.5774,3.5774,0,0,0-.2215-.3423l1.0269.0805Z"/><path class="cls-3" d="M51.6316,44.57c-.1459-.4218-.2617-.6651-1.1276-1.1282a10.952,10.952,0,0,0-1.8732-.7249,3.3848,3.3848,0,0,0-.7249-.2214c.06.04,1.7323.9866,2.0544,1.1276a4.1071,4.1071,0,0,1,.9464.4832c.1611.1612.2014.1612.2819.3826s0,.5035.141.7854.2617.2824.2617.2824a1.4108,1.4108,0,0,0,.04-.9867Z"/><path class="cls-3" d="M49.3322,41.5049a2.9684,2.9684,0,0,1,1.1.1594c.3659.1236.4945.6981.7468,1.0152,0,0-.89-.9565-1.6043-.9263-.12.0051-.4743-.2489-.2421-.2483Z"/><path class="cls-3" d="M48.89,42.0257a1.1,1.1,0,0,1,.6813.0929c.23.0793.348.2768.5649.5722L49.925,42.59s.0454.0016-.2583-.1577a5.0076,5.0076,0,0,0-.59-.2316c-.1359-.0716-.3138-.1442-.1874-.175Z"/><path class="cls-3" d="M56.8279,40.9036a2.21,2.21,0,0,0-.6343,1.42,15.5073,15.5073,0,0,0,.3021,3.021,3.6033,3.6033,0,0,1-.3927,2.5069,4.0879,4.0879,0,0,0-.5745,2.1451,4.0328,4.0328,0,0,0,.791,1.9689,4.2747,4.2747,0,0,1-.4034-2.4376c.2417-1.178.937-1.8726,1.0276-2.7184a7.9909,7.9909,0,0,0-.2668-2.6736,4.2337,4.2337,0,0,1,.151-3.2325Z"/><path class="cls-3" d="M55.7551,55.61a4.6134,4.6134,0,0,0,.6645-1.9533c.02-.9263-.584-1.8526-.7652-2.819a2.9878,2.9878,0,0,1-.02-1.833,1.9921,1.9921,0,0,1,.8056-1.0677,4.8011,4.8011,0,0,0-.5035,1.51,4.4337,4.4337,0,0,0,.2819,2.0348,5.3459,5.3459,0,0,1,.4833,2.96,4.7536,4.7536,0,0,1-.8855,1.55c-.2623.3434-.4234.3624-.0609-.3826Z"/><path class="cls-3" d="M53.9948,62.6547c-.1359.0995-.2982.208-.4949.3267a1.482,1.482,0,0,1-.423.1465s.2367-.2775.8055-1.0728c.9062-1.3492.8564-2.7631,1.168-4.1682a12.3232,12.3232,0,0,1,1.3894-2.78,6.2264,6.2264,0,0,0,.1112-2.2955c-.06,2.96-1.6316,2.8393-2.0243,5.1762a7.1641,7.1641,0,0,1-1.6159,3.9769,8.9381,8.9381,0,0,1-3.6805,2.83c1.6512.3221,2.7789-.1411,4.2293-.2014a7.6616,7.6616,0,0,1,1.45.1208h0c.3021.1409.4028-.2227,1.2893-.6846a10.55,10.55,0,0,1,1.6925-.7115,5.3848,5.3848,0,0,1,1.983-.2663c-.1124-.0626,2.3436-.1018,1.9883-.3368-.1381-.5514-1.0089-.0625-.75-.378-.8861.4229-1.0421.1107-2.1.3221a13.6592,13.6592,0,0,1-1.51.0907,2.4015,2.4015,0,0,1-.74-.151.82.82,0,0,1-.5235-.8055,6.9863,6.9863,0,0,1,.04-.886,4.973,4.973,0,0,0-.0761-1.0426,7.1206,7.1206,0,0,1-2.2083,2.79Z"/><path class="cls-3" d="M73.71,56.3453a6.2909,6.2909,0,0,0-2.6283-1.8122,9.56,9.56,0,0,0-5.438.8456c-1.54.7854-2.1444,1.9041-2.9605,3.3539a4.747,4.747,0,0,0-.5638,1.1075c-.2629.7887-.2819,1.1277.1711,1.339.2344.11,1.33-.4228,1.33-.4228-.2516-.3524-1.1583-.1711-1.1583-.1711a3.3769,3.3769,0,0,1,.8865-.8256,1.8181,1.8181,0,0,1,1.0572-.1209l-.5135-.3624a3.97,3.97,0,0,1,.4833-1.51,3.8451,3.8451,0,0,1,3.0209-2.5685c1.9935-.5134,2.9909-.6343,4.199-.06A16.3034,16.3034,0,0,1,73.71,56.3453Z"/><path class="cls-3" d="M76.8215,58.39a6.9565,6.9565,0,0,1-.4838,3.1613,12.0952,12.0952,0,0,1-2.1344,2.2364c1.6511.6443,4.6319-.2428,5.1151-1.8941a3.06,3.06,0,0,0-.9665-3.3828,1.5939,1.5939,0,0,0-1.53-.1208ZM72.4508,64.05a9.6885,9.6885,0,0,0-1.41-.7059c-.6756-.2663-1.59-.5549-1.59-.5549s2.1759-.3793,3.3818-.6533a6.11,6.11,0,0,0,1.5712-.5034,1.9617,1.9617,0,0,0,.6645-.4832s.2719-.1209.6645-1.168c.3138-.8367-.1242-2.3122.0605-2.5573.3624-.4833,2.7212.1331,3.7458,1.7317.7552,1.178.0906,3.111.0906,3.111s.6746-.2617.7552-2.0236c.0939-2.055-2.2515-3.2083-2.2515-3.2083a3.8364,3.8364,0,0,1,2.3124,1.7786c.886,1.49.3423,3.3225-.9067,4.9334s-4.0479,1.5718-5.1756,1.33a3.54,3.54,0,0,1,.6847,1.1477c.2617,1.0873-.1007,1.7116-.5236,1.9532a14.213,14.213,0,0,1-3.0411.3625c-.6443.02-.9062,0-1.8525.0805a18.0857,18.0857,0,0,1-2.417-.1209,5.6586,5.6586,0,0,0-1.0476.2216c-.9425.22-.9262-.02-.9262-.02s.161-.4631-1.0471-.2819a10.7068,10.7068,0,0,1-1.4907.1209,2.7817,2.7817,0,0,1-1.8526.1812c-1.188-.2216-1.2892-.9665-1.2892-.9665a4.8026,4.8026,0,0,0,1.8732.4027,2.0594,2.0594,0,0,0,1.45-.5639s.2533.3859,1.2283.0605a2.5992,2.5992,0,0,0,.7853-.3826s1.9051.1175,2.0942.1409c.665.0806,2.1149.2014,2.1149.2014s.1611,0,1.37.0805c.8284.0549,1.4615.11,1.51-.1007.0453-.1957-.6041-.4486-.6041-.4486s1.1477.1467,1.7116.1667a1.7832,1.7832,0,0,0,.9872-.2013.8994.8994,0,0,0,.02-1.0672c-.3144-.3412-.2109-.3144-.6343-.5135-1.0276-.4833-.8765-.6947-.8765-.6947s-.29-.3871.3625-.0906c.3322.1511-.0605-.4228-.0605-.4228a1.4561,1.4561,0,0,0-.443-.2719Z"/><path class="cls-3" d="M67.91,62.2664a2.9148,2.9148,0,0,0,.5437.1813c.2673.0671,1.45.5135,1.45.5135a.963.963,0,0,0,.7422-.22c.3844-.4173-1.0392.0369-.9732-.4239.02-.141-.2523-.3223-.2523-.3223a3.0313,3.0313,0,0,0-.7551-.06c-.6644.06-.755.3321-.755.3321Z"/><path class="cls-3" d="M57.6837,62.78a11.4921,11.4921,0,0,0,2.3413-.3624,15.9943,15.9943,0,0,0,1.903-.7552,4.6759,4.6759,0,0,1,1.1729-.0648.4949.4949,0,0,0-.2769.397.9621.9621,0,0,0,.061.5639,1.654,1.654,0,0,1,.745-.1007.549.549,0,0,1,.4129.2617s-.3323.5237.1106.6645.9969.1422,1.9131.4531a14.54,14.54,0,0,0,2.1752.5448c.7047.141,1.48.3915,1.48.3915s.1108.1019-.1511.2428.6948.4229.6948.4229.0906.06-.5739,0a8.28,8.28,0,0,1-1.3491-.1612,8.9492,8.9492,0,0,0-1.43-.2214,7.851,7.851,0,0,0-1.0073-.1007c-.3025-.0112-1.3088-.06-2.3559-.1824a10.3753,10.3753,0,0,1-2.437-.5235,2.2768,2.2768,0,0,0-1.2893,0,.7129.7129,0,0,0-.8055-.06,1.5813,1.5813,0,0,0-.7752.7965,1.3106,1.3106,0,0,1,.5537-.1511,1.24,1.24,0,0,1,.4632.0805.458.458,0,0,1-.1007.5438,3.1419,3.1419,0,0,1-.7249.443s-.02-.1411-1.1277-.1411-1.2283-.161-1.6114.3827-.2014-.886-.2014-.886.2618-.4229,1.7524-1.1288a7.1256,7.1256,0,0,1,3.2425-.6444,10.6485,10.6485,0,0,1,2.0136.1611,15.7271,15.7271,0,0,1,1.6115.4833,5.2957,5.2957,0,0,0-1.5712-.8457,11.2429,11.2429,0,0,0-4.4306-.04c-1.1678.2628-1.6108.02-1.49-.1611s1.0623-.3021,1.0623-.3021Z"/><path class="cls-3" d="M58.2927,64.9558a1.4872,1.4872,0,0,1,.8861-.06.5774.5774,0,0,1,.3026.2012,3.5824,3.5824,0,0,0,.3418.3223s-1.2687.1007-1.0068.7047a.9106.9106,0,0,0,.9469.5035.8966.8966,0,0,0-.4637.5436.538.538,0,0,0,.2618.584l1.0275.4027-.6242.2215s-.4234-.1812-.5241.0805a2.8632,2.8632,0,0,0-.141.5292,1.878,1.878,0,0,1-.4832-.9923,1.3339,1.3339,0,0,1,.3624-.9866.4126.4126,0,0,0-.5823.0246,1.44,1.44,0,0,0-.3238.6242,1.8376,1.8376,0,0,1-.5236-.9711,1.1942,1.1942,0,0,1,.3624-.9665l.1812-.7652Z"/><path class="cls-3" d="M48.0619,52.9322a2.7659,2.7659,0,0,1,.1007-1.49,3.755,3.755,0,0,1,.8658-1.2082c-.6275.358-.9145.0191-2.5159-.45a9.9457,9.9457,0,0,0-3.0724-.3715,7.1971,7.1971,0,0,1-2.3414-1.118c-.2266-.1963-.1818-.376-.3273-.8407a.7579.7579,0,0,0-.8457-.4028.5637.5637,0,0,0-.4027.2819s-.1661.04-.4833.1007-.5039.4632-.5039.4632a1.1732,1.1732,0,0,1,.5392-.1007.8535.8535,0,0,1,.4558.2421c.02.7054-.0581.7255.2238,1.2088a6.9365,6.9365,0,0,0,1.1779,1.3491,13.63,13.63,0,0,0,2.0344,1.0471c.1236.0549.7624.3624,1.329.5638a3.0509,3.0509,0,0,1,1.1477.9061s.0062-.6946.9671-.3826a5.4526,5.4526,0,0,0,1.6512.2014Zm-10.07-3a1.0243,1.0243,0,0,0-.7367,1.0056h0c.1577.4386.2634.55.792.62.2567-.06.4542-.1062.4682-.2863h0s-.1209-.1108-.02-.2115a1.1675,1.1675,0,0,1,.9067-.2214,2.6438,2.6438,0,0,0-.8262-.5437c-.5218-.4654-.1733-.7126.06-.9072a1.6154,1.6154,0,0,1,.9838.0838l-.9027-1.07c-.4084-.2567-1.0846-.3535-1.2815.2266-.038.1509-.0638.5722.1129.679.3021.3222.4632.4027.4432.6254Zm.8892-3.6079a.9062.9062,0,0,0-1.0454.1735c-.1168.2293-.1135.7.1562.7954.8646.1466.736-.5537,1.6019-.4536a2.4383,2.4383,0,0,1-.7127-.5153Zm10.1169,4.9166a15.7035,15.7035,0,0,1-1.3291,3.9568,1.8606,1.8606,0,0,0-.6342-.7148c-.4184-.2785-1.1483.1611-1.1483.1611a5.5951,5.5951,0,0,0-2.1748-1.5c-1.2344-.5192-1.0873.5537-1.0873.5537l-1.41-1.55c-.5229-.5751-1.0672-.3324-1.55-.1813a7.0469,7.0469,0,0,1-1.9034-.06,1.0772,1.0772,0,0,1-.3021-2.1143,1.2953,1.2953,0,0,1-.604-1.1483c.06-.7551.8759-.7255.8759-.7255s-.604-.4833-.5738-.876a1.6185,1.6185,0,0,1,1.1175-1.0873,22.5437,22.5437,0,0,1,2.81.9967c.68.1661.372,1.0432,1.58,1.5359a7.0032,7.0032,0,0,0,2.5282.428c1.1182,0,1.5109.4223,2.7794.7243s1.39-.2114,1.39-.2114-.2439,1.0248-.363,1.8133Z"/><path class="cls-3" d="M58.0461,45.3951a4.4761,4.4761,0,0,1,.0151,1.7519c-.4078,1.0421-1,1.2663-1.1779,2.26a7.5315,7.5315,0,0,0,.3624,3.2228,3.4105,3.4105,0,0,1,.1813,2.07c-.2417.5638-.7049,1.1521-1.027,1.8368a9.3653,9.3653,0,0,0-.5291,1.5763,15.19,15.19,0,0,1,.811-1.5763A10.6575,10.6575,0,0,0,57.91,54.5834c.5286-1.51-.2618-2.4767-.4229-3.3427a3.2134,3.2134,0,0,1,.6646-2.6987,3.7481,3.7481,0,0,0,.8255-1.9337,9.5313,9.5313,0,0,0,.1415-1.53l-1.0728.3171Z"/><path class="cls-3" d="M33.3456,76.4581s24.1233-.6108,30.2877-1.1713c1.6574-.151,4.5889-.2416,6.4129-.4229s4.53-.302,4.53-.302a9.58,9.58,0,0,1-2.9012.5762c-2.3448.2058-6.7329.7383-8.7593.7383-2.474,0-10.7153.5951-13.1837.7159a121.4722,121.4722,0,0,1-16.3865-.1342Z"/><path class="cls-3" d="M36.794,45.6357a.3318.3318,0,1,0-.3524-.3312.3422.3422,0,0,0,.3524.3312ZM47.4578,17.507l-6.193,27.571s-.03.3474.151.4228a3.1665,3.1665,0,0,1,.5141.2266,2.43,2.43,0,0,1,.4077.3171,3.971,3.971,0,0,1-1.0124-.1963.8676.8676,0,0,1-.6041-.4983l6.2937-27.7624c.2014-1.1886.6242-3.6855.6847-4.31s-.0805-.4833-.3222-.1812a15.8619,15.8619,0,0,0-1.3693,3.846s-6.042,25.3359-6.1628,26.0406a3.782,3.782,0,0,1-.3776,1.5958c-.344.579-.6549.69-1.0577.6494-.3009-.03-.72-.0447-.8.197-.0554.1661.2019.2768.5437.317a3.2009,3.2009,0,0,0,1.1634-.0754c.438-.1209.6192-.1813.6192-.1813a1.4375,1.4375,0,0,0,.2266.3474,2.3573,2.3573,0,0,0,.6494.4681,3.4911,3.4911,0,0,0,1.2087.2468.4585.4585,0,0,1,.5235.3624c.06.1611.3686.3356.7652.1409a.5616.5616,0,0,0,.04-.8558c-.3081-.2718-.745.03-.8255-.1107s.3121-.5537.9011-.3424a.9322.9322,0,0,1,.5739,1.2837c-.2265.68-.9716.67-1.3743.6092s-.6248-.3624-.7652-.4027a3.0209,3.0209,0,0,0-.4436-.06s-2.658-1.0673-2.88-1.1075a4.0039,4.0039,0,0,0-.9868.1007c-.2012.04-.3422.2617-.8456.1812-.2786-.0448-1.1831-.3938-.9062-1.2233a1.0144,1.0144,0,0,1,1.2535-.7557c.3256.0543.3474.3624.6343.4078.3742.0593.6494.02.7708-.3625s6.6053-26.2213,6.6053-26.2213c.9267-3.0613,1.6316-4.9346,2.2558-5.72s.9072-1.4672.8054.2819a28.2473,28.2473,0,0,1-.6645,4.7533Z"/><path class="cls-3" d="M50.7205,59.9408a18.57,18.57,0,0,1,.9061-4.32A20.388,20.388,0,0,0,52.7749,52.57a28.8981,28.8981,0,0,0-.0906-3.1424c.06-.664.1208-1.2982.1208-1.2982h.4228a10.5524,10.5524,0,0,0-.06,2.1439,6.4875,6.4875,0,0,1,.0907,2.6289c-.3625,1.2988-1.0717,2.1736-1.35,3.252a18.6548,18.6548,0,0,0-.584,4.25l-.604-.4631Z"/><path class="cls-3" d="M35.5405,45.4623a.3852.3852,0,1,0-.4061-.3843.3957.3957,0,0,0,.4061.3843Z"/><path class="cls-3" d="M38.4854,54.4111a.5128.5128,0,1,0-.5336-.5123.5234.5234,0,0,0,.5336.5123Z"/><path class="cls-3" d="M37.8814,51.7543s.151-.1063-.0151.0749a1.1643,1.1643,0,0,0-.3978.942,1.1879,1.1879,0,0,0,1.0623.962,1.1235,1.1235,0,0,0,1.3446-.8167.911.911,0,0,0-.2266-.9967c-.1661-.1655-.8456.06-.8456.06a.83.83,0,0,1,.3926.7708.4623.4623,0,0,1-.5593.3927.4761.4761,0,0,1-.4375-.59.9884.9884,0,0,1,.5437-.5739.3158.3158,0,0,1,.1208-.2719c.1359-.0906-.9821.046-.9821.046Z"/><path class="cls-3" d="M44.3215,47.5721a.5609.5609,0,1,0-.5464-.561.5538.5538,0,0,0,.5464.561Z"/><path class="cls-3" d="M41.6345,64.15a14.9864,14.9864,0,0,0,1.2972,2.25,21.2854,21.2854,0,0,1,1.49,2.1759c.4027.6846,1.6165,2.5651,2.583,3.8538S49.69,75.6526,49.69,75.6526s-2.2474-3.5327-2.9321-4.459S45.429,69.18,44.7842,68.3342s-2.7469-3.8213-3.15-4.1838Z"/><path class="cls-3" d="M47.3522,64.0844s2.6585,3.2229,3.9874,4.7935,2.0142,2.8191,2.6586,3.5842,2.5227,2.9455,2.5227,2.9455A14.1227,14.1227,0,0,0,54.4815,72.14c-1.0315-1.1053-1.8929-2.4969-2.7391-3.5037s-2.135-2.74-2.6989-3.223-1.41-1.3692-1.6913-1.3289Z"/><path class="cls-3" d="M55.816,66.6473s3.3074,4.1134,3.8712,4.6772,2.3364,3.0606,2.3364,3.0606,1.9287,1.9286.66.1164c-.3083-.4408-1.9532-2.5371-2.6781-3.4645s-1.5712-1.8929-2.2559-2.6983a15.7059,15.7059,0,0,0-1.9331-1.6914Z"/><path class="cls-3" d="M63.9371,68.51A6.8659,6.8659,0,0,0,65.0245,70.04c.5638.5235,1.6517,1.773,2.0141,2.216s2.5,2.2776,2.5,2.2776A18.4251,18.4251,0,0,0,68.0858,72.74c-.6042-.6041-1.2485-1.2484-1.7323-1.8134A34.0222,34.0222,0,0,0,63.9371,68.51Z"/><path class="cls-3" d="M69.8241,68.3063s1.6422,1.7462,2.45,2.677a31.6872,31.6872,0,0,0,2.6927,2.5,5.0806,5.0806,0,0,0-.9929-1.4475,29.4674,29.4674,0,0,1-2.2022-2.3605c-.47-.584-1.1773-1.2831-1.1773-1.2831l-.77-.0861Z"/><path class="cls-3" d="M43.1358,72.4778s2.58-.2718,3.7453-.3322,5.2467-.1208,6.762-.1208,7.5784-.4833,9.677-.5437,5.5381-.4844,6.3542-.4844,7.9225-.1555,7.9225-.1555a15.8707,15.8707,0,0,1-3.3029.47c-.4694.0291-5.028.4117-5.7271.4117s-2.7548.0448-2.7548.0448a26.878,26.878,0,0,1-3.0165.1364,19.6955,19.6955,0,0,0-2.9539.2316s-.952.01-2.1758.1308-3.4394,0-3.6727.0605a26.602,26.602,0,0,1-3.4348.2663,23.05,23.05,0,0,1-3.0166-.0851c-.1751-.06-1.36.06-2.0595.06s-2.3464-.0906-2.3464-.0906Z"/><path class="cls-3" d="M58.0512,67.936H54.1039c-.6847,0-3.0512.1913-3.0512.1913s-2.1043-.0705-3.1921-.0705-5.9011.2819-5.9011.2819a49.3653,49.3653,0,0,0,5.9212.06c1.0594-.0291,3.2123,0,3.6552,0s2.4427-.0225,3.0513-.06c3.4137-.2114,3.464-.4027,3.464-.4027Z"/><path class="cls-3" d="M50.2523,64.88s-3.3079.0458-4.637.1063-3.9271.06-3.9271.06a11.5645,11.5645,0,0,1,2.0539-.2573c1.2686-.06,2.4158-.0168,3.1419-.06a26.501,26.501,0,0,1,3.3683.151Z"/><path class="cls-3" d="M29.0024,53.4513a.1945.1945,0,0,0-.1684.0168l-.06.0078a.1077.1077,0,0,0-.0582.0649l-.01.0436a.4848.4848,0,0,0-.0253.5739c.1511.169.4532.1532.4431.4732l-.0073.0381.0252-.1209-.02.04c-.0279.0548-.0531.1108-.08.1655l-.0252.0963a.213.213,0,0,0,.0151.1835l.0124.02a1.1815,1.1815,0,0,0,.7427.5516,1.4063,1.4063,0,0,0-.2164.481l-.0078.0873a.2493.2493,0,0,0,.04.1465l.0331.0481c.0928.208.3271.29.5012.4251.05.04.015.1186-.0431.2193a.5779.5779,0,0,0,.2036.7372c.1465.113.3378.1611.4155.3245.1085.2348-.0878.4664-.06.726a.6981.6981,0,0,0,.6723.6409c.0251,0,.07.038.0654.0537-.05.198-.2042.3569-.1762.5806.04.35.35.4587.5817.6354-.0458.0873.05.1835-.071.2662a.7484.7484,0,0,0,.6572.8917c.04.0022.0956.0727.1812.0771a.0727.0727,0,0,0,.1007-.0324.072.072,0,0,0-.0347-.0973c-.1667-.2047-.4083-.3636-.4385-.6477a.7513.7513,0,0,0-.3976-1.0717.078.078,0,0,1-.03-.0783.9352.9352,0,0,0,.07-.8233.7456.7456,0,0,0-.5666-.3345c-.0174-.0034-.0324-.0784-.0274-.1242a1.9979,1.9979,0,0,0,.0526-.7249,1.0434,1.0434,0,0,0-.6393-.6768c-.0174-.0079-.05.0123-.0778.0224a.8.8,0,0,0-.443-1.1937l-.1007-.123.0425.1465.0151-.0906c.1136-.28.2265-.6277-.07-.867-.1633-.1331-.3825-.1331-.5414-.264L29.4,54.8205l.0251.1377.03-.0872-.0022.0122.0676-.1287a.2132.2132,0,0,0,.0252-.1129l-.0073-.0984a.718.718,0,0,0-.6119-.5884c-.0906-.0179-.0805-.1522-.0605-.2395l.0353-.123-.0353.05.0784-.04c-.0734-.1063.04-.0739.0727-.1007a.03.03,0,0,0,.0179-.0336.0281.0281,0,0,0-.033-.0168Z"/><path class="cls-3" d="M31.7012,52.9064c-.0582-.02-.0492.0471-.1018.0773l-.06.0079a.1034.1034,0,0,0-.0581.0648l-.01.0425a.4866.4866,0,0,0-.0252.5751c.1509.1677.3865.0939.3764.4138l-.0078.0369.0252-.12-.02.04c-.0279.0547-.0531.1107-.0805.1655l-.0252.0962a.2146.2146,0,0,0,.0145.1835l.0129.02a1.1821,1.1821,0,0,0,.7423.5515,1.4172,1.4172,0,0,0-.216.48l-.0079.0884a.2517.2517,0,0,0,.04.1465l.033.0482c.093.208.3273.2885.5006.4251.05.04.0151.1185-.0425.2192a.5775.5775,0,0,0,.2042.7372c.1455.113.3368.1611.415.3245.1086.2348-.0878.4665-.06.7249a.6983.6983,0,0,0,.6722.6421c.0252,0,.0705.038.0656.0537-.05.1979-.2043.3568-.1763.5805.04.35.35.4587.5812.6343-.0454.0884.05.1847-.0706.2674a.7481.7481,0,0,0,.6573.8916c.04.0022.0957.0727.1813.0771a.0725.0725,0,0,0,.1006-.0324.0739.0739,0,0,0-.0352-.0984c-.1661-.2037-.4078-.3624-.438-.6466a.7524.7524,0,0,0-.3977-1.0728.0758.0758,0,0,1-.03-.0772.9355.9355,0,0,0,.0705-.8233.75.75,0,0,0-.5667-.3356c-.0173-.0023-.0324-.0773-.0273-.1231a1.9955,1.9955,0,0,0,.0525-.7249,1.0457,1.0457,0,0,0-.6392-.6769c-.0179-.0077-.05.0124-.0778.0225a.8.8,0,0,0-.4436-1.1937l-.1007-.123.0431.1465.0151-.0906c.1131-.28.2266-.6276-.07-.8669-.164-.1333-.3827-.1333-.5416-.2641l-.0754-.1454.0252.1375.03-.0871-.0023.0122.0677-.1286a.2128.2128,0,0,0,.0252-.113l-.0073-.0985a.591.591,0,0,0-.5454-.53c-.0906-.0179-.0805-.151-.06-.2394l.0352-.1231-.0352.05.0783-.04c-.0733-.1052.04-.0727.0726-.1007a.0287.0287,0,0,0,.018-.0324.307.307,0,0,0-.1-.0773Z"/><path class="cls-3" d="M34.18,52.5921a.6951.6951,0,0,0,.3071,1.0852c.1739.1913-.0269.2517-.0873.4474l-.01.0482a.2143.2143,0,0,0,.03.1107l.01.02a.7276.7276,0,0,0,.4559.4988l.0777.0045-.0654-.0547-.005-.0124c.1387.0772.3149.226.2388.3669a.7616.7616,0,0,0,.37,1.0549l.04.02-.1131-.1029.103.1153a.157.157,0,0,1,.1135.1442.5327.5327,0,0,1-.0755.2741c-.179.4005.1863.7652.5258.9923a.1555.1555,0,0,1,.0682.161c-.0632.3547-.2343.7473.1057.999a1.3517,1.3517,0,0,1,.4732.5941.12.12,0,0,0,.2395-.0124.6852.6852,0,0,0-.1108-.7371,1.274,1.274,0,0,0-.3927-.2674c-.0458-.02-.0805-.1567-.053-.2316a.9331.9331,0,0,0-.0986-.942c-.1253-.1386-.3193-.1912-.42-.3568-.1611-.2639.0576-.5414.03-.8256a.3475.3475,0,0,0-.0856-.1991l.0324.0279a.2751.2751,0,0,0-.1107-.104l-.1258-.0671a.5744.5744,0,0,1-.3776-.37c-.0655-.26.156-.5112.023-.773l-.0107-.066a.2381.2381,0,0,0-.1331-.0827l-.0683-.0347c.018-.0034.033-.0078.05-.01-.0677-.06-.1785-.0458-.226-.1364l-.1085-.1086.03.1108v-.0907a.0515.0515,0,0,1-.06-.0648.5993.5993,0,0,0-.3054-.8155c-.1762-.0985-.1286-.3379-.0554-.5091a.1239.1239,0,0,0-.2265-.1007Z"/><path class="cls-3" d="M26.4775,53.9167a.6954.6954,0,0,0,.3071,1.0851c.1739.1913-.0073.4072-.0683.6041l-.0094.0481a.2139.2139,0,0,0,.03.1108l.0095.02a.73.73,0,0,0,.4558.4979l.0784.0056-.0655-.0559L27.21,56.22c.1383.0784.3145.226.2388.3669a.7616.7616,0,0,0,.37,1.055l.04.02-.1135-.1029.1036.1163a.1538.1538,0,0,1,.1129.1432.5343.5343,0,0,1-.0755.2742c-.1785.4.1863.7651.5263.9922a.1565.1565,0,0,1,.0682.161c-.0632.3547-.2343.7474.1057.9991a1.3588,1.3588,0,0,1,.4733.5939.12.12,0,0,0,.2388-.0122.6842.6842,0,0,0-.1107-.7372,1.2693,1.2693,0,0,0-.3927-.2674c-.0453-.02-.0806-.1555-.0526-.2316a.933.933,0,0,0-.0984-.9419c-.1259-.1376-.32-.19-.42-.3569-.1616-.264.0577-.5414.03-.8256a.3408.3408,0,0,0-.0856-.199l.033.0279a.2659.2659,0,0,0-.1108-.1029l-.1259-.0683a.5734.5734,0,0,1-.3775-.37c-.0654-.2594.1561-.5111.0224-.773l-.01-.0648a.2429.2429,0,0,0-.1331-.0839l-.0682-.0347c.0178-.0023.033-.0079.05-.01-.0675-.06-.1783-.0458-.2264-.1364l-.108-.1086.03.1119v-.0906a.0523.0523,0,0,1-.06-.066.7934.7934,0,0,0-.325-.9722c-.1761-.0972-.1286-.3367-.0553-.5078a.124.124,0,1,0-.2266-.1007Z"/><path class="cls-3" d="M29.1058,60.7082a.5493.5493,0,0,0,.254.6175c.0935.06.1209.2114.1437.339-.02-.03-.043-.0626-.0626-.0929-.0128.05-.028.1029-.0408.1533l-.0325.0917a.2112.2112,0,0,0-.0027.12l.0228.0738a1.7012,1.7012,0,0,0,.5868.6242.2178.2178,0,1,0,.2869-.3277c-.1286-.1174-.2645-.2282-.3954-.3423l-.0733-.141-.0045.1309.0224-.0671a.6149.6149,0,0,0-.4105-.8715c-.0352-.0055-.0906.0626-.1561-.0459a.971.971,0,0,1-.0878-.2661.03.03,0,0,0-.0279-.0224.0284.0284,0,0,0-.0225.0268Z"/><path class="cls-3" d="M30.9987,64.203c-.03-.0079-.0605-.0157-.0906-.0225l.01-.0536a.1.1,0,0,0-.065.0235l-.0681.07c-.3.3445-.0029.7372.1481,1.0694.01.0247-.06.1052-.1532.1656a.4923.4923,0,0,0-.05.7483c.151.141.3848.28.2971.4912-.1058.2517-.3927.4172-.3753.7249a1.2665,1.2665,0,0,0,.2718.54c.1711.2854-.1863.5147-.259.8011a.55.55,0,0,0,.2769.6242c.1358.3054-.2573.4788-.32.7528l-.02.0325a.2321.2321,0,0,0-.0274.1242l.01.0906a.5287.5287,0,0,0,.1157.2461c.0857.1231.269.1969.2517.3446a.8334.8334,0,0,1-.4586.5951.2071.2071,0,0,0-.06.2886.21.21,0,0,0,.292.0582,1.1,1.1,0,0,0,.6874-.9419.7694.7694,0,0,0-.3429-.6108l-.0424-.1041-.028.1264.0481-.1208c.1281-.25.3451-.4653.34-.7606a1.2376,1.2376,0,0,0-.3076-.6746,1.4616,1.4616,0,0,0,.29-.9241c-.0172-.2719-.32-.4072-.317-.6588.0021-.1768.1985-.2976.2516-.4811.1057-.3625-.141-.6679-.1936-1.0046a.68.68,0,0,0,.1282-.6288c-.1007-.2528-.39-.4284-.2848-.75l.033-.0727-.0681.0223.0279-.0078c.02-.01.04-.0223.06-.0324a.0867.0867,0,0,0-.1186-.1264l.1108.0358Z"/><path class="cls-3" d="M33.5917,64.0061a.2723.2723,0,0,0-.2718.0883c-.3372.3647-.1611.8279.1086,1.1981a.19.19,0,0,1-.0129.1712,1.0928,1.0928,0,0,0-.2444,1.0672,3.2913,3.2913,0,0,0,.34.4989.1477.1477,0,0,1-.033.1713.86.86,0,0,0-.0145,1.3166.3743.3743,0,0,1-.1365.4832l-.0526.0627a.234.234,0,0,0-.05.1108l-.0122.0861a1.2643,1.2643,0,0,0,.3093.896.1683.1683,0,0,1-.0051.1757c-.2718.26-.5414.5616-.4407.9542a.241.241,0,1,0,.481-.03c-.0022-.0749-.0352-.1655-.01-.2192.1158-.2507.3954-.3949.448-.6948a.9881.9881,0,0,0-.292-.7674.3914.3914,0,0,1-.03-.2416l.0077-.085-.0508.1107.038-.0559a.77.77,0,0,0,.2494-.858c-.0581-.207-.2494-.32-.3048-.519-.0856-.3223.136-.5662.2192-.8659a.3261.3261,0,0,0-.005-.1768,1.6844,1.6844,0,0,1-.1537-.7416c.038-.2394.2293-.4207.2668-.6724.0531-.37-.2087-.6074-.4-.8961a.4415.4415,0,0,1,.0727-.5213.0226.0226,0,0,0,.0129-.0336.0221.0221,0,0,0-.0331-.0122Z"/><path class="cls-3" d="M36.0842,63.6413a.3154.3154,0,0,0-.282.1232c-.37.4989-.0279,1.0727.2138,1.528-.07.0728-.0806.1868-.1461.2495a1.0785,1.0785,0,0,0,.1237,1.4352l.0173-.0235v-.0021l.0079.0178c.0475.0627.1057.1231.07.2238-.0934.28-.335.4855-.3423.7875a1.1844,1.1844,0,0,0,.2115.5952c.0654.123.1683.2964.0676.3926-.4632.433-.1382,1.0718.1437,1.4722a.9829.9829,0,0,1-.2617.7226.1511.1511,0,0,0-.0352.2138.1527.1527,0,0,0,.2136.038.7414.7414,0,0,0,.3877-.2439,1.0021,1.0021,0,0,0-.0554-1.2842c-.2618-.292.01-.5885.038-.9a1.2851,1.2851,0,0,0-.3222-.8134.4223.4223,0,0,1-.0453-.4083c.1209-.3.3647-.5839.2892-.9318l.0179-.02a.2143.2143,0,0,0-.1236-.123l.0078-.038c-.04-.1981-.184-.4073-.0654-.6086-.0252.0223-.05.0447-.0755.0682a.9477.9477,0,0,0,.4026-1.1008c-.1761-.425-.74-.8177-.4278-1.3189a.0331.0331,0,0,0,.01-.04.0324.0324,0,0,0-.04-.01Z"/><path class="cls-3" d="M39.0146,64.4088c-.2674-.0124-.36.29-.38.5034a.9221.9221,0,0,0,.2416.63.2174.2174,0,0,1,.0431.179c-.0705.2394-.3149.3971-.34.6522a1.1253,1.1253,0,0,0,.4581.876l.0553.0368-.1007-.1253.0078.02c.0225.31-.32.4777-.4077.7606-.1084.3469.1555.6143.3345.8962a.09.09,0,0,1,.0078.0827,1.0778,1.0778,0,0,0-.3328.7551c.03.3524.3227.5594.4861.8435a.9982.9982,0,0,1-.4632.8961.0717.0717,0,0,0,.0806.1186,2.161,2.161,0,0,0,.6393-.4352.7994.7994,0,0,0,.141-.9117c-.1158-.1914-.2768-.3222-.395-.509a.1922.1922,0,0,1-.0105-.1835,1.5,1.5,0,0,0,.2925-.5918c.0426-.2763-.189-.4453-.3272-.6667-.038-.0582-.0654-.1209-.0252-.1768.2288-.3166.5207-.6443.4179-1.0448l.0151-.0168a.2371.2371,0,0,0-.1007-.1264l-.0129-.03c-.0828-.1108-.0526-.2841-.2539-.33.2137-.2618.4933-.5482.42-.9263a1.29,1.29,0,0,0-.423-.6566c-.1308-.1331-.0553-.3122-.0173-.4732a.034.034,0,0,0-.05-.0459Z"/><path class="cls-3" d="M27.3423,72.668s2.0069-.1432,3.1378-.2808c1.239-.151,3.6492-.0112,5.7837-.0917,2.3184-.0872,5.3355-.3637,5.3355-.3637a16.9278,16.9278,0,0,0,.0179-3.7139,30.7472,30.7472,0,0,1-.0806-4.5922,22.505,22.505,0,0,1,.5645,3.0618c.08,1.1679.2007,2.6983.2819,3.4232s.04.6847.161,1.4509a15.836,15.836,0,0,1,.1409,1.781,7.3933,7.3933,0,0,1-2.27.4094,24.571,24.571,0,0,0-4.3561-.0157,12.0446,12.0446,0,0,1-3.3432.2417,9.0662,9.0662,0,0,0-3.1821.1611c-.2417.2013-.8055-.5639-.8055-.5639a21.6647,21.6647,0,0,1,3.4237-.2416,42.5222,42.5222,0,0,0,4.8277-.2327c.806-.0805,2.2133.1767,2.9058.1119,1.66-.1566,1.8928-.5638,1.8928-.5638s-1.3206-.0761-3.0529.0044-3.1463.1791-4.4752.1791-3.4015.0089-4.2069.0894-1.9694.2238-1.9694.2238l-.7316-.4777Z"/><path class="cls-3" d="M33.5917,73.8975s.1253.5951.2344,1.1723a4.7383,4.7383,0,0,0,1.6445,2.29l.7551.2417-.2114-.5439a5.4242,5.4242,0,0,1-1.499-1.9229,4.9511,4.9511,0,0,1-.0173-1.2372Z"/><path class="cls-3" d="M40.253,73.535a13.5166,13.5166,0,0,0,.3042,1.5672,4.4786,4.4786,0,0,0,1.6417,2.0035,1.8737,1.8737,0,0,0,.6785.5528l.44-.0392-.1756-.5011a9.2172,9.2172,0,0,1-1.7631-1.8515c-.604-1.3894-.1275-1.3882-.3255-1.763-.127-.2395-.8.0313-.8.0313Z"/><path class="cls-3" d="M23.0588,53.2958l.0906.2606s2.1351-.4832,3.4439-.7047,1.833-.1812,3.9675-.6242,4.8739-.6847,4.8739-.6847,1.0875,2.1546,1.55,3.2016,1.8124,3.5049,1.8124,3.5049a9.3533,9.3533,0,0,0-.6645-2.3974,26.4265,26.4265,0,0,1-1.49-2.92c-.282-.6847-.8737-2.2978-.8737-2.2978s-1.5919.4308-1.7043.4453a.1236.1236,0,0,1-.141-.06,5.177,5.177,0,0,0-.0805-1.25c-.1208-.3826-1.6511-2.799-1.6511-2.799l-.584-.3826.2416.8659a12.1869,12.1869,0,0,1,1.1679,1.9733,7.0412,7.0412,0,0,1,.2215,1.7731l-5.9615,1.0873A15.9794,15.9794,0,0,0,26.2756,49.86c-.18-.3279-1.3134-.8553-1.4347-1.0163s-.3217-.4431-.3217-.4431l-.3227-.222s-.2281.6857,0,.9872c.443.5834,1.0476.5229,1.43,1.0868a5.411,5.411,0,0,1,.8256,2.1356l-3.0008.6645-.3927.2427Z"/><path class="cls-3" d="M35.2525,52.2141l.1611-.2819s-1.2385.151-1.7519.1812-2.4958.4038-3.5227.6454-2.9.3323-4.0183.5437-3.1262.801-3.1262.801A36.9322,36.9322,0,0,1,24.68,57.9473c.3931,1.2686.5755,3.3414,1.2388,4.5609A3.172,3.172,0,0,0,28.0336,64.11a9.1078,9.1078,0,0,1,2.7637-.68c1.541-.1209,2.9908-.6948,4.411-.8155a10.1336,10.1336,0,0,0,2.5674-.574,2.0062,2.0062,0,0,0-1.6161-.3478c-.9367.2113-3.2838.8815-3.8213.9821-.6494.1209-1.9789.2562-2.5831.4374-.4575.1376-1.4649.3323-1.4649.3323s-1.1181-.226-1.7675-1.9175c-.5973-1.5561-.6192-2.16-1.3592-3.7766-.5689-1.2417-1.4744-3.4355-1.4744-3.4355s1.1931-.2874,1.9784-.4687.9369-.03,3.0814-.4832,4.1671-.8268,5.1543-.9677c.37-.0526,1.2988-.1612,1.3492-.1812Z"/><path class="cls-3" d="M28.2853,63.9479a16.262,16.262,0,0,0-.1208,2.1356c.08,1.8122.8457,2.94.6444,4.1481a9.4452,9.4452,0,0,1-.8659,2.4577l-.4234-.2417a8.2572,8.2572,0,0,0,.5235-2.5785,36.4823,36.4823,0,0,1-.4833-3.6649,16.97,16.97,0,0,1,.2819-2.1746l.4436-.0817Z"/><path class="cls-3" d="M51.4151,36.6492c-.2208-.5637-1.0672-1.8083-1.2216-2.1987-.1319-.3351.3089-.81.7384-.6717.3938.1274.4665.9033.4665.9033a.8491.8491,0,0,1,1.0817-.22.5237.5237,0,0,1,.1114.8743c-.2724.2919-.9414.0821-.9414.0821s-.5034.7786.608,1.5495c.8222.571,1.2921-.0169,1.2921-.0169a.8872.8872,0,0,0,.6711.7384c.2949.08.9957.509,1.6115-.6544.1393-.2629.2042-.7216.1136-.74a2.0724,2.0724,0,0,0-.344-.0056.5232.5232,0,0,1-.0392-1.0454.5445.5445,0,0,1,.3776.15l.0028-.018a.4205.4205,0,0,0,.7014-.0368c.1522-.1741.0039-.6064.0039-.6064l.0017-.0011a.4087.4087,0,0,1-.0325-.1566.4628.4628,0,0,1,.9241,0,.4379.4379,0,0,1-.3043.4088.8522.8522,0,0,0-.2539.4251c-.0783.4581.6.4862.6.4862l-.02.0318c.01-.0005.0179-.0028.0273-.0028a.5165.5165,0,0,1,.53.5017.5009.5009,0,0,1-.53.5017c-.359-.0324-.5582-.396-.7572-.36,0,0-1.0885,1.3927.3389,2.0208a1.4921,1.4921,0,0,0,1.3883-.02,1.3349,1.3349,0,0,0,1.0386.64A1.8342,1.8342,0,0,0,61.1331,38.14s-.693-.12-.7746-.4765a.5234.5234,0,0,1,.56-.664.9479.9479,0,0,1,.9307.6735.9174.9174,0,0,1,.6-.4637c.4111-.066.73.5163.4363.7221-.2629.1834-1.6416.9519-2.3314,1.4117a11.4777,11.4777,0,0,0-1.26.8815c-.1907.1634-.3272.3737-.4323.4436l-.4234-.1617s.02,0-.7652-.3221-.886-.3826-.886-.3826-.4161-.2019-1.3223-.5246-1.6092-.5577-1.6092-.5577.1118.0957-.6936-.1661-.745-.2417-.745-.2417l-.4481-.11c-.0116-.024-.0223-.0447-.0357-.0716,0,0-.2293-.7433-.5186-1.4812Zm6.5012-1.1985a1.1155,1.1155,0,0,0-.3344-.0588m0,0a.9543.9543,0,0,0,.4675-.8172.9691.9691,0,0,0-1.9381,0,.9422.9422,0,0,0,.0421.2656,1.1885,1.1885,0,0,0-.9437-.0486.9836.9836,0,0,0-.77.9984c0,.61.2913,1.0679.9083,1.0679.0633,0-.06.01,0,0-.0386.0475.0107-.0348,0,0a.7413.7413,0,0,1-.9251.4563.8822.8822,0,0,1-.68-.9593s-.73.5286-1.2277.2266c-.5946-.3614-.2651-.5952-.2651-.5952a1.0867,1.0867,0,0,0,1.1-1.3972,1.196,1.196,0,0,0-1.5689-.6589s.1079-.7082-1.0338-.8563a1.1744,1.1744,0,0,0-1.1248,1.4772c.12.2561.2014.3188.94,1.5774a10.1924,10.1924,0,0,1,.957,1.9934,1.0154,1.0154,0,0,1,.0314.25.7686.7686,0,0,0,.04.2617,18.1622,18.1622,0,0,1,3.5043.9564,28.5675,28.5675,0,0,1,4.0883,1.7626s.02-.0812.0408-.222c.0044-.032.01-.065.0156-.0968a3.1364,3.1364,0,0,1,1.0521-1.0012c1.6087-1.0181,2.2553-1.2614,3.0636-1.7156.5347-.3.3361-1.2914-.1847-1.5443-1.0207-.4961-1.3625.0967-1.3625.0967a1.2826,1.2826,0,0,0-1.7143-.1442.9393.9393,0,0,0,.2142,1.6164s.0167.217-.6427.3759c-.6041.1449-.7859-.7534-.7859-.7534a1.4174,1.4174,0,0,1-1.418.29.7511.7511,0,0,1-.4653-.9593c.1946.325.4168.2775.7607.254a.964.964,0,0,0,.9543-1.0118,1.1938,1.1938,0,0,0-.7955-1.0862"/><path class="cls-3" d="M52.7335,40.0949a3.8249,3.8249,0,0,1,.895.6934,4.2867,4.2867,0,0,1,.5146.7614,2.0327,2.0327,0,0,0-1.3537.0056c-.7.2348-.9732.0167-.9956-.2518a.7939.7939,0,0,1,.2014-.5152.27.27,0,0,0,.19.4314.7333.7333,0,0,0,.5874-.0426s-.42-.0519-.4531-.2852a.4073.4073,0,0,1,.2852-.4363s-.1638-.1141-.6544.0252c-.3747.1068-.3859.4312-.453.52s-.0974.033-.0672-.2456c.05-.4676-.0838-1.03,1.3033-.66Z"/><path class="cls-3" d="M56.2809,32.2629a.6366.6366,0,1,0-.6293-.6365.6328.6328,0,0,0,.6293.6365Z"/><path class="cls-3" d="M52.8007,33.0091a.4121.4121,0,1,0-.4448-.4112.4288.4288,0,0,0,.4448.4112Zm-.96-.4112a.9605.9605,0,1,1,.96.9453.9533.9533,0,0,1-.96-.9453Z"/><path class="cls-3" d="M54.6756,32.2361a.3081.3081,0,1,0-.3239-.3076.3157.3157,0,0,0,.3239.3076Zm-.79-.3144a.7937.7937,0,1,1,.7936.7725.7833.7833,0,0,1-.7936-.7725Z"/><path class="cls-3" d="M57.493,28.4157a1.3753,1.3753,0,0,0-.2685.4476,2.3077,2.3077,0,0,0-.1119.6935s1.1561-.1807,1.2087.09a.5356.5356,0,0,1-.1343.4546l.69.2383s-.0407-.4692.1159-.514.962.6717.962.6717.2014-.0452.4028-.47a.68.68,0,0,0-.0448-.6712s-1.1411.2237-1.1411-.09.8054-1.074.8054-1.074a1.2246,1.2246,0,0,0-.6163-.4306c-.4917-.1342-.5918-.0392-.5918-.0392s-.0447,1.32-.2238,1.3425-1.052-.649-1.052-.649Z"/><path class="cls-3" d="M52.1831,33.8911a7.3275,7.3275,0,0,1,2.149-1.212,13.33,13.33,0,0,1,2.6535-.6433c.45-.1253.8547-.2074.8547-.2074s.3893.7014.1191.7858-.6924-.08-1.4766-.0285a7.3507,7.3507,0,0,0-2.342.7612,2.58,2.58,0,0,0-1.2059,1.0068l-.7518-.4626Z"/><path class="cls-3" d="M59.1962,33.1008a.6368.6368,0,1,1,.8664-.2265.6335.6335,0,0,1-.8664.2265Z"/><path class="cls-3" d="M61.6869,37.1024a8.0809,8.0809,0,0,0-1.2127-2.5943,13.31,13.31,0,0,0-1.88-1.98c-.31-.35-.6052-.6376-.6052-.6376s-.7076.3774-.5264.5951.6254.3081,1.2557.7774a7.3412,7.3412,0,0,1,1.5544,1.91,3.5021,3.5021,0,0,1,.5314,1.7149l.8827.2143Z"/><path class="cls-3" d="M61.88,35.7728a.4119.4119,0,1,0-.4447-.4106.4281.4281,0,0,0,.4447.4106Zm-.47.4027a.9453.9453,0,1,1,1.3077-.3233.9531.9531,0,0,1-1.3077.3233Z"/><path class="cls-3" d="M58.187,31.6683a.5227.5227,0,1,0-.5268-.5224.5241.5241,0,0,0,.5268.5224Zm-1.0448-.5224A1.0446,1.0446,0,1,1,58.187,32.19a1.045,1.045,0,0,1-1.0448-1.0443Z"/><path class="cls-3" d="M60.7567,34.003a.3083.3083,0,1,0-.3239-.3077.3162.3162,0,0,0,.3239.3077Zm-.3943.36a.7728.7728,0,1,1,1.0767-.2595.7823.7823,0,0,1-1.0767.2595Z"/><path class="cls-3" d="M55.6953,38.9818c.2181,0,.3428-.2356.3428-.428a.399.399,0,0,0-.7914,0,.4956.4956,0,0,0,.4486.428Z"/><g class="cls-4"><path class="cls-2" d="M2.0293,132.4485c.6449,0,1.29.071,1.9532.071.6455,0,1.0432-.071,1.6881-.071v.3929c-.8065.1076-1.0035.646-1.0035,1.7927,0,1.7023-.0178,3.4057-.0178,5.1079,0,2.4022,1.1108,4.1044,3.7811,4.1044a3.028,3.028,0,0,0,3.2979-2.8672v-2.1158c0-2.1135-.1611-4.2293-.1611-5.1251a.9971.9971,0,0,0-.914-.8969v-.3929c.645,0,1.192.071,1.8375.071s1.1287-.071,1.7742-.071v.3929c-.5917.0183-.8424.7171-.8424,1.3276,0,.68-.0537,2.5442-.0537,4.91v3.9073c0,1.0036.1969,1.5236.9856,1.5775v.394c-.5018,0-1.0214-.0721-1.5231-.0721s-.7266.0721-1.2283.0721c.0358-.6105.09-1.165.1253-1.7034a5.527,5.527,0,0,1-4.1609,1.9176,4.3756,4.3756,0,0,1-4.57-4.2109v-2.9933c0-1.3987-.0895-2.6347-.0895-3.7459,0-.6988-.1253-1.2727-.8782-1.38v-.3929Z"/><polygon class="cls-3" points="132.857 155.895 131.711 155.895 131.711 0.103 132.857 0.103 132.857 155.895 132.857 155.895"/></g><path class="cls-2" d="M174.4027,66.7312c0,3.356.1294,5.7724,1.1066,6.9135.7812.94,1.8225,1.4766,7.0312,1.4766,7.2283,0,8.27-.3357,11.2652-7.2491a1.7043,1.7043,0,0,1,2.0184.4028,64.8384,64.8384,0,0,1-2.7356,9.7324c-2.7332-.1341-8.3337-.2013-15.625-.2013H170.69c-3.32,0-6.5753.0672-9.31.2013-.5212-.2684-.716-1.6108-.1306-1.9465l1.9543-.3355c3.06-.537,3.6451-.6041,3.6451-7.5847V43.1718c0-6.9806-.5854-7.182-3.6451-7.6518l-1.8237-.2685c-.4559-.3356-.4559-1.678.1306-1.9465,3.2556.1342,6.1847.2014,9.1791.2014,2.865,0,5.7952-.0672,8.66-.2014a1.3522,1.3522,0,0,1,.1306,1.9465l-1.433.2685c-3.06.537-3.6451.6712-3.6451,7.6518V66.7312Z"/><g class="cls-4"><path class="cls-2" d="M209.7594,39.1445c0-2.8191-.0653-2.9533-1.7584-2.9533h-3.6462c-5.99,0-7.7472.7384-10.1574,6.1751a1.5975,1.5975,0,0,1-2.0826-.47c1.1055-3.6245,2.0826-7.7861,2.5385-10.1353a.7988.7988,0,0,1,.716-.2685.7437.7437,0,0,1,.6518.2685c.3253,1.678,1.2372,1.7452,5.6646,1.7452h26.5649c3.19,0,4.1663-.2014,4.9486-1.7452a1.8088,1.8088,0,0,1,.7813-.2685,1.0145,1.0145,0,0,1,.8465.3357,48.5546,48.5546,0,0,0-.9771,10.6722,1.5238,1.5238,0,0,1-2.0184.2013c-.8466-5.2355-2.0837-6.5107-9.0508-6.5107h-3.71c-1.6942,0-1.7584.1342-1.7584,2.9533V68.1407c0,7.1148.5854,7.3162,3.6462,7.6519l2.3438.2683c.4559.47.3906,1.6781-.1306,1.9465-3.7757-.1341-6.7059-.2013-9.5709-.2013s-5.9247.0672-10.0921.2013a1.48,1.48,0,0,1-.1295-1.9465l2.7333-.3355c3.0608-.4028,3.6473-.47,3.6473-7.5847V39.1445Z"/><path class="cls-2" d="M255.0136,56.3275c-3.3221,0-3.5157.1342-3.5157,1.9464v9.8668c0,7.1148.5854,7.2491,3.6451,7.6519l1.9531.2683c.4571.47.3907,1.6781-.1294,1.9465-3.3862-.1341-6.3165-.2013-9.1814-.2013s-5.7941.0672-8.2685.2013c-.5212-.2684-.5853-1.4766-.13-1.9465l.9118-.1342c3.06-.47,3.6462-.6712,3.6462-7.786V43.1718c0-7.1148-.5865-7.3162-3.6462-7.7189l-1.4331-.2014a1.48,1.48,0,0,1,.1306-1.9465c2.865.1342,5.9247.2014,8.79.2014s5.7952-.0672,8.3348-.2014a1.48,1.48,0,0,1,.1307,1.9465l-1.1078.2014c-3.06.5369-3.6451.6041-3.6451,7.7189v8.1215c0,1.88.1936,2.0137,3.5157,2.0137h15.2355c3.3209,0,3.5156-.1342,3.5156-2.0137V43.1718c0-7.1148-.5865-7.3162-3.6462-7.7189l-1.4331-.2014a1.48,1.48,0,0,1,.1318-1.9465q4.4916.2013,8.7885.2014c2.8649,0,5.7952-.0672,8.4-.2014a1.48,1.48,0,0,1,.1306,1.9465l-1.173.2014c-3.06.5369-3.645.6041-3.645,7.7189V68.1407c0,7.1148.5853,7.3162,3.645,7.7188l1.4331.2014c.4559.47.3906,1.6781-.1306,1.9465-2.865-.1341-5.7953-.2013-8.66-.2013q-4.4916,0-8.7885.2013c-.5212-.2684-.5865-1.4766-.1318-1.9465l1.4331-.2014c3.06-.4026,3.6462-.604,3.6462-7.7188V58.2739c0-1.8122-.1947-1.9464-3.5156-1.9464Z"/></g><polygon class="cls-2" points="182.343 96.892 187.675 96.892 187.675 98.403 184.267 98.403 184.267 100.766 187.51 100.766 187.51 102.277 184.267 102.277 184.267 106.481 182.343 106.481 182.343 96.892 182.343 96.892"/><path class="cls-2" d="M193.4345,98.8149h-.0264l-1.3883,3.9568h2.8031l-1.3884-3.9568Zm-1.0573-1.923h2.1707l3.7643,9.5894h-2.13l-.8236-2.1983H191.47l-.8374,2.1983h-1.9932l3.7379-9.5894Z"/><path class="cls-2" d="M206.5336,106.3437a9.6988,9.6988,0,0,1-2.1845.3031c-3.1055,0-5.2614-1.5526-5.2614-4.7958,0-3.2833,2.0058-5.1236,5.2614-5.1236a6.3228,6.3228,0,0,1,2.1708.3983l-.1375,1.6209a3.9541,3.9541,0,0,0-2.0745-.5089,3.2038,3.2038,0,0,0-3.2144,3.4769,3.159,3.159,0,0,0,3.2556,3.4209,5.3688,5.3688,0,0,0,2.102-.3983l.0825,1.6065Z"/><path class="cls-2" d="M208.5715,96.8919h1.9234v5.5363c0,1.6355.5223,2.7073,1.992,2.7073s1.9921-1.0718,1.9921-2.7073V96.8919h1.9234v6.127c0,2.57-1.456,3.6279-3.9155,3.6279s-3.9154-1.0583-3.9154-3.6279v-6.127Z"/><polygon class="cls-2" points="219.252 96.892 221.176 96.892 221.176 104.97 224.9 104.97 224.9 106.481 219.252 106.481 219.252 96.892 219.252 96.892"/><polygon class="cls-2" points="228.283 98.403 225.535 98.403 225.535 96.892 232.954 96.892 232.954 98.403 230.207 98.403 230.207 106.481 228.283 106.481 228.283 98.403 228.283 98.403"/><polygon class="cls-2" points="237.41 102.69 233.906 96.892 236.159 96.892 238.426 100.917 240.735 96.892 242.768 96.892 239.332 102.69 239.332 106.481 237.41 106.481 237.41 102.69 237.41 102.69"/><path class="cls-2" d="M253.4648,105.1355c1.9646,0,2.6931-1.7451,2.6931-3.4758,0-1.69-.7835-3.422-2.6931-3.422s-2.692,1.7317-2.692,3.422c0,1.7307.7263,3.4758,2.692,3.4758Zm0-8.4081c3.0082,0,4.699,2.0328,4.699,4.9323s-1.6622,4.9871-4.699,4.9871c-3.0769,0-4.699-2.0472-4.699-4.9871s1.6485-4.9323,4.699-4.9323Z"/><polygon class="cls-2" points="260.615 96.892 265.946 96.892 265.946 98.403 262.539 98.403 262.539 100.766 265.78 100.766 265.78 102.277 262.539 102.277 262.539 106.481 260.615 106.481 260.615 96.892 260.615 96.892"/><polygon class="cls-2" points="176.083 116.136 181.743 116.136 181.743 117.648 178.005 117.648 178.005 120.01 181.427 120.01 181.427 121.522 178.005 121.522 178.005 124.214 181.77 124.214 181.77 125.725 176.083 125.725 176.083 116.136 176.083 116.136"/><polygon class="cls-2" points="184.592 116.136 186.955 116.136 190.61 123.308 190.637 123.308 190.637 116.136 192.478 116.136 192.478 125.725 190.129 125.725 186.461 118.554 186.433 118.554 186.433 125.725 184.592 125.725 184.592 116.136 184.592 116.136"/><path class="cls-2" d="M202.7877,117.9919a6.2707,6.2707,0,0,0-2.4732-.51,3.2656,3.2656,0,0,0-3.4755,3.4767,3.16,3.16,0,0,0,3.2556,3.4217,5.2061,5.2061,0,0,0,1.2647-.1375v-2.5007h-2.0334v-1.5109h3.8731v5.164a12.0311,12.0311,0,0,1-3.1044.496c-3.1055,0-5.2614-1.5522-5.2614-4.7951,0-3.2843,2.0058-5.124,5.2614-5.124a9.4536,9.4536,0,0,1,2.8157.3987l-.1226,1.6209Z"/><polygon class="cls-2" points="206.022 116.136 207.946 116.136 207.946 125.725 206.022 125.725 206.022 116.136 206.022 116.136"/><polygon class="cls-2" points="210.875 116.136 213.237 116.136 216.893 123.308 216.919 123.308 216.919 116.136 218.76 116.136 218.76 125.725 216.412 125.725 212.742 118.554 212.715 118.554 212.715 125.725 210.875 125.725 210.875 116.136 210.875 116.136"/><polygon class="cls-2" points="221.857 116.136 227.517 116.136 227.517 117.648 223.781 117.648 223.781 120.01 227.202 120.01 227.202 121.522 223.781 121.522 223.781 124.214 227.545 124.214 227.545 125.725 221.857 125.725 221.857 116.136 221.857 116.136"/><polygon class="cls-2" points="230.463 116.136 236.124 116.136 236.124 117.648 232.386 117.648 232.386 120.01 235.806 120.01 235.806 121.522 232.386 121.522 232.386 124.214 236.15 124.214 236.15 125.725 230.463 125.725 230.463 116.136 230.463 116.136"/><path class="cls-2" d="M240.8262,120.2314h.6323c.9474,0,2.0333-.1375,2.0333-1.3334,0-1.1536-1.0711-1.25-2.0333-1.25h-.6323v2.5832Zm-1.9234-4.0953h2.0746c2.0608,0,4.52-.0676,4.52,2.5969a2.1947,2.1947,0,0,1-1.9783,2.2258v.0275c.5224.0412.8237.5636,1.0161.9886l1.5384,3.75h-2.1421l-1.1547-2.9945c-.2749-.7148-.5223-.9886-1.3322-.9886h-.6186v3.9831h-1.9234v-9.5893Z"/><polygon class="cls-2" points="248.264 116.136 250.187 116.136 250.187 125.725 248.264 125.725 248.264 116.136 248.264 116.136"/><polygon class="cls-2" points="253.118 116.136 255.48 116.136 259.134 123.308 259.162 123.308 259.162 116.136 261.002 116.136 261.002 125.725 258.654 125.725 254.985 118.554 254.957 118.554 254.957 125.725 253.118 125.725 253.118 116.136 253.118 116.136"/><path class="cls-2" d="M271.3121,117.9919a6.2707,6.2707,0,0,0-2.4732-.51,3.2656,3.2656,0,0,0-3.4755,3.4767,3.1606,3.1606,0,0,0,3.2567,3.4217,5.2023,5.2023,0,0,0,1.2636-.1375v-2.5007H267.85v-1.5109h3.8741v5.164a12.0461,12.0461,0,0,1-3.1044.496c-3.1055,0-5.2625-1.5522-5.2625-4.7951,0-3.2843,2.0058-5.124,5.2625-5.124a9.4656,9.4656,0,0,1,2.8158.3987l-.1238,1.6209Z"/></svg>